<?xml version="1.0" encoding="UTF-8"?>
<!DOCTYPE svg PUBLIC "-//W3C//DTD SVG 1.1//EN" "http://www.w3.org/Graphics/SVG/1.1/DTD/svg11.dtd">
<!-- Creator: CorelDRAW -->
<svg xmlns="http://www.w3.org/2000/svg" xml:space="preserve" width="79.8698mm" height="13.8136mm" version="1.1" style="shape-rendering:geometricPrecision; text-rendering:geometricPrecision; image-rendering:optimizeQuality; fill-rule:evenodd; clip-rule:evenodd"
viewBox="0 0 7332.94 1268.24"
 xmlns:xlink="http://www.w3.org/1999/xlink"
 xmlns:xodm="http://www.corel.com/coreldraw/odm/2003">
 <defs>
  <style type="text/css">
   <![CDATA[
    .fil23 {fill:#029E5E;fill-rule:nonzero}
    .fil3 {fill:#650000;fill-rule:nonzero}
    .fil24 {fill:#792937;fill-rule:nonzero}
    .fil12 {fill:#99F8FD;fill-rule:nonzero}
    .fil11 {fill:#A80C11;fill-rule:nonzero}
    .fil7 {fill:#AE5D01;fill-rule:nonzero}
    .fil20 {fill:#B95924;fill-rule:nonzero}
    .fil10 {fill:#C51118;fill-rule:nonzero}
    .fil5 {fill:#CE8501;fill-rule:nonzero}
    .fil6 {fill:#CFA06B;fill-rule:nonzero}
    .fil19 {fill:#DD7F33;fill-rule:nonzero}
    .fil22 {fill:#DFB49C;fill-rule:nonzero}
    .fil25 {fill:#E4995C;fill-rule:nonzero}
    .fil18 {fill:#E59497;fill-rule:nonzero}
    .fil14 {fill:#E8A0A3;fill-rule:nonzero}
    .fil17 {fill:#E9C88C;fill-rule:nonzero}
    .fil15 {fill:#EBCE99;fill-rule:nonzero}
    .fil8 {fill:#EE1822;fill-rule:nonzero}
    .fil21 {fill:#F0C5A3;fill-rule:nonzero}
    .fil9 {fill:#F7979B;fill-rule:nonzero}
    .fil13 {fill:#F8A3A7;fill-rule:nonzero}
    .fil2 {fill:#FBBF01;fill-rule:nonzero}
    .fil26 {fill:#FCD24E;fill-rule:nonzero}
    .fil16 {fill:#FDE28C;fill-rule:nonzero}
    .fil4 {fill:#FDE599;fill-rule:nonzero}
    .fil1 {fill:#FF3F4B;fill-rule:nonzero}
    .fil0 {fill:white;fill-rule:nonzero}
   ]]>
  </style>
 </defs>
 <g id="Camada_x0020_1">
  <metadata id="CorelCorpID_0Corel-Layer"/>
  <path class="fil0" d="M147.02 1004.76l-147.02 0 0 -574.36 163.88 0c63.99,0 108.98,3.07 134.95,9.36 25.84,6.29 47.8,17 65.87,32.13 21.14,17.54 37.35,39.49 48.47,65.74 11.11,26.38 16.59,55.56 16.59,87.7 0,34.27 -5.48,64.41 -16.46,90.38 -10.97,26.09 -27.18,47.37 -48.6,64.11 -16.2,12.6 -35.35,21.57 -57.31,27.06 -21.96,5.48 -57.17,8.29 -105.5,8.29l-26.64 0 -28.24 0 0 189.59zm0 -315.7l29.85 0c37.62,0 63.85,-5.21 78.73,-15.53 14.86,-10.32 22.36,-27.85 22.36,-52.75 0,-24.09 -7.36,-41.24 -21.96,-51.41 -14.6,-10.16 -40.57,-15.27 -77.65,-15.27l-31.32 0 0 134.96z"/>
  <path class="fil0" d="M509.16 1004.76l0 -574.36 163.88 0c64,0 108.7,2.94 133.89,8.82 25.17,5.89 46.98,15.81 65.33,29.6 20.61,15.66 36.54,35.74 47.66,59.97 11.12,24.38 16.6,51.16 16.6,80.47 0,44.45 -10.98,80.59 -32.8,108.45 -21.95,27.85 -53.82,46.32 -95.72,55.43l156.65 231.62 -176.73 0 -131.74 -224.94 0 224.94 -147.02 0zm147.02 -302.86l28.92 0c33.72,0 58.37,-5.76 73.9,-17.27 15.53,-11.51 23.28,-29.57 23.28,-54.09 0,-28.78 -7.22,-49.27 -21.68,-61.46 -14.6,-12.18 -38.84,-18.2 -73.11,-18.2l-31.32 0 0 151.01z"/>
  <path class="fil0" d="M1613.84 718.78c0,41.38 -7.62,80.07 -22.75,116.08 -15.14,36.16 -37.23,68.43 -66.29,96.93 -29.32,28.24 -62.79,49.95 -100.41,65.33 -37.62,15.27 -76.71,22.91 -117.14,22.91 -41.1,0 -80.45,-7.64 -117.96,-22.91 -37.49,-15.39 -70.42,-37.09 -98.93,-65.33 -29.59,-28.51 -51.95,-60.92 -67.35,-97.33 -15.26,-36.28 -22.89,-74.85 -22.89,-115.68 0,-41.1 7.63,-79.66 22.89,-115.94 15.41,-36.15 37.76,-68.55 67.35,-97.07 28.51,-28.24 61.44,-49.93 98.93,-65.33 37.5,-15.26 76.86,-22.89 117.96,-22.89 40.71,0 80.07,7.63 117.82,22.89 37.75,15.41 70.95,37.09 99.73,65.33 28.8,28.25 50.75,60.51 66.15,96.93 15.27,36.28 22.89,74.97 22.89,116.08zm-306.86 168.69c43.38,0 79.25,-15.92 107.64,-47.79 28.39,-32.01 42.58,-72.3 42.58,-120.91 0,-48.06 -14.33,-88.23 -43.11,-120.49 -28.78,-32.14 -64.53,-48.2 -107.11,-48.2 -43.37,0 -79.26,16.06 -107.65,48.06 -28.38,32.01 -42.56,72.3 -42.56,120.63 0,49.14 13.92,89.57 41.89,121.16 27.99,31.73 64.13,47.53 108.32,47.53z"/>
  <path class="fil0" d="M1825.1 430.4l155.84 0 0 372.86c0,40.43 -2.67,71.63 -7.9,93.31 -5.22,21.7 -13.79,40.85 -25.84,57.58 -15.94,21.69 -35.48,38.16 -58.79,49.26 -23.28,11.12 -49.39,16.62 -78.31,16.62 -36.15,0 -68.29,-7.78 -96.4,-23.16 -28.24,-15.41 -52.48,-38.16 -72.56,-68.43l95.58 -86.75c2.41,17 7.9,30.12 16.48,39.22 8.7,9.24 19.55,13.8 32.66,13.8 14.86,0 25.17,-8.3 30.8,-24.78 5.62,-16.46 8.43,-57.7 8.43,-123.57l0 -315.96z"/>
  <polygon class="fil0" points="2096.63,1004.76 2096.63,430.4 2448.47,430.4 2448.47,556.51 2249.25,556.51 2249.25,656.13 2437.1,656.13 2437.1,779.04 2249.25,779.04 2249.25,876.24 2448.47,876.24 2448.47,1004.76 "/>
  <polygon class="fil0" points="2634.71,1004.76 2634.71,566.14 2506.19,566.14 2506.19,430.4 2919.89,430.4 2919.89,566.14 2791.36,566.14 2791.36,1004.76 "/>
  <path class="fil0" d="M3571.9 718.78c0,41.38 -7.62,80.07 -22.75,116.08 -15.13,36.16 -37.23,68.43 -66.29,96.93 -29.32,28.24 -62.79,49.95 -100.4,65.33 -37.62,15.27 -76.72,22.91 -117.15,22.91 -41.1,0 -80.45,-7.64 -117.96,-22.91 -37.49,-15.39 -70.42,-37.09 -98.93,-65.33 -29.59,-28.51 -51.95,-60.92 -67.35,-97.33 -15.26,-36.28 -22.89,-74.85 -22.89,-115.68 0,-41.1 7.63,-79.66 22.89,-115.94 15.41,-36.15 37.76,-68.55 67.35,-97.07 28.51,-28.24 61.44,-49.93 98.93,-65.33 37.5,-15.26 76.86,-22.89 117.96,-22.89 40.71,0 80.07,7.63 117.82,22.89 37.76,15.41 70.95,37.09 99.73,65.33 28.8,28.25 50.75,60.51 66.15,96.93 15.27,36.28 22.89,74.97 22.89,116.08zm-306.85 168.69c43.38,0 79.24,-15.92 107.63,-47.79 28.39,-32.01 42.58,-72.3 42.58,-120.91 0,-48.06 -14.33,-88.23 -43.11,-120.49 -28.78,-32.14 -64.53,-48.2 -107.1,-48.2 -43.38,0 -79.27,16.06 -107.65,48.06 -28.39,32.01 -42.57,72.3 -42.57,120.63 0,49.14 13.93,89.57 41.89,121.16 27.99,31.73 64.14,47.53 108.33,47.53z"/>
  <polygon class="fil1" points="4831.69,1138.06 4133.54,1133.59 4258.7,1058.8 4379.38,434.85 4197.43,262.88 4871.86,389.94 4611.16,436.57 4667.87,1009 "/>
  <g id="_2895979934512">
   <path class="fil2" d="M4294.05 462.2c-35.89,20.56 -71.52,43.95 -106.41,69.79 -28.55,21.15 -56.62,43.97 -83.93,68.21l0 0.02c-147.69,131.04 -273.63,304.45 -337.57,488.57 -12.05,34.61 -21.88,69.61 -29.25,104.77 -13.14,62.61 -90.26,86.16 -135.91,41.32 -67.59,-66.38 -121.68,-157.34 -157.36,-264.04 -4.3,-12.76 -8.29,-25.73 -12.03,-38.94 -53.07,-187.32 -51.61,-417.02 27.93,-645.97 5.76,-16.59 11.91,-33.21 18.51,-49.77 303.55,-113.08 568.58,4.04 816.03,226.03z"/>
   <path class="fil3" d="M3478.99 237.16c-6.32,15.86 -12.47,32.42 -18.28,49.19 -74.84,215.44 -84.75,444.59 -27.91,645.22 3.74,13.23 7.78,26.31 12.01,38.88 35.62,106.49 89.93,197.62 157.05,263.54 21.05,20.68 50.49,27.92 78.75,19.37 28.38,-8.58 48.96,-31.03 55.05,-60.05 7.27,-34.7 17.12,-70 29.3,-104.93 61.19,-176.25 181.05,-349.8 337.53,-488.75l0.4 -0.38c27.3,-24.24 55.56,-47.2 84.02,-68.26 34.47,-25.54 69.78,-48.75 105.02,-69.01 -283.73,-254.05 -542.13,-325.49 -812.93,-224.83zm182.69 1022.12c-22.66,1.28 -44.72,-6.93 -61.58,-23.49 -67.41,-66.2 -121.93,-157.68 -157.69,-264.54 -4.23,-12.61 -8.28,-25.73 -12.04,-38.99 -56.98,-201.13 -47.04,-430.81 27.95,-646.73 5.89,-16.99 12.13,-33.76 18.54,-49.84l0.2 -0.51 0.52 -0.19c145.41,-54.18 286.04,-58.31 429.87,-12.65 126.12,40.03 252.85,118.18 387.45,238.93l1.29 1.17 -1.51 0.86c-35.65,20.42 -71.41,43.88 -106.3,69.72 -28.24,20.91 -56.31,43.72 -83.44,67.77l-0.39 0.39c-156.35,138.72 -276.11,312.05 -337.22,488.04 -12.14,34.83 -21.96,70.03 -29.21,104.62 -6.28,29.93 -27.51,53.09 -56.78,61.94 -6.53,1.98 -13.12,3.13 -19.67,3.51z"/>
   <path class="fil4" d="M3646.22 1247.19c-14.12,-2.25 -27.4,-8.88 -38.18,-19.48 -62.4,-61.27 -115.2,-147.62 -151.28,-251.04 4.51,1.65 9.19,3.06 14.02,4.18 2.75,0.63 5.49,1.17 8.23,1.6 35.71,102.45 88.51,189.84 154,254.15 4.17,4.09 8.59,7.63 13.21,10.6zm-232.03 -450.56c-20.88,-154.84 -7.27,-331.18 56.24,-511.51 4,-0.31 8.03,-0.59 12.12,-0.82 3.42,-0.19 6.86,-0.35 10.34,-0.49 -0.45,1.29 -0.9,2.55 -1.34,3.83 -59.58,171.51 -75.35,343.41 -57.21,497.63 -7.3,2.99 -14.07,6.81 -20.15,11.36z"/>
   <path class="fil5" d="M4132.8 509.21c-3.76,-2.75 -7.42,-5.72 -10.95,-8.92 -38.65,-35.15 -85.15,-66.79 -136.25,-94.35 -1.01,-1.25 -2.75,-2.21 -4.82,-2.59 -53.04,-28.19 -110.86,-51.99 -169.9,-70.79 0.22,-3.44 0.19,-6.88 -0.07,-10.28 1.26,-3.33 2.3,-6.78 3.12,-10.32l0 0c1.68,-7.31 2.31,-14.64 1.96,-21.91 117.3,36.1 232.34,92.77 315.09,168.02 10.44,9.49 22.14,17.23 34.63,23.06 -10.84,4.88 -17.55,11.94 -21.69,18.89 -0.37,0.2 -0.71,0.44 -1.03,0.73 -2.61,2.41 -4.88,5.21 -6.79,8.25l-3.31 0.19zm-530.46 -221.22c-38.2,-4.07 -75.06,-5.52 -109.45,-4.18 4.61,-13.17 9.47,-26.34 14.62,-39.51 31.58,-1.25 65.96,-0.06 102.05,3.51 -2.3,4.99 -4.13,10.24 -5.4,15.75 -1.88,8.15 -2.44,16.34 -1.82,24.42z"/>
   <path class="fil6" d="M3470.43 285.12c4.62,-13.14 9.51,-26.29 14.67,-39.45 4.3,-0.35 8.65,-0.65 13.06,-0.9 3.08,-0.17 6.21,-0.32 9.34,-0.46 -5.14,13.17 -10.01,26.34 -14.62,39.51 -3.48,0.14 -6.91,0.29 -10.34,0.49 -4.09,0.23 -8.12,0.5 -12.12,0.82z"/>
   <path class="fil7" d="M3763.7 1065.77c-1.74,-1.6 -3.42,-3.19 -5.05,-4.8 -3.53,-3.53 -6.74,-7.1 -9.33,-10.77 -2.63,-3.73 -4.78,-7.76 -6.31,-11.85 -3.09,-8.26 -3.26,-16.47 0.21,-22.93 1.76,-3.39 4.69,-6.94 8.18,-10.82 3.48,-3.89 7.52,-8.17 11.16,-13.7 1.79,-2.8 3.42,-5.93 4.65,-9.34 1.19,-3.43 1.85,-6.9 2.19,-10.19 0.62,-6.6 0.06,-12.52 -0.32,-17.81l-0.14 -1.95 -0.05 -0.49c0,-0.14 -0.01,-0.11 0.01,-0.18 0.02,-0.09 0.03,-0.18 0.03,-0.28 -0.02,-0.19 -0.02,-0.38 0.06,-0.5 0.02,-0.16 0.01,-0.32 0.11,-0.43 0.17,-0.52 0.52,-1.01 1.14,-1.45 0.59,-0.43 1.4,-0.72 2.14,-0.76 0.01,0 0.03,0 0.04,0 0.77,-0.04 1.39,0.13 1.96,0.48 0.15,0.08 0.32,0.14 0.45,0.31 0.07,0.07 0.16,0.14 0.24,0.19 0.06,0.05 0.05,0.02 0.17,0.13l0.39 0.39c1.06,1.02 2.1,2.06 3.2,3.03 2.16,2 4.43,3.87 6.75,5.72 4.7,3.6 9.65,6.95 15.21,9.71 1.5,0.74 3.04,1.46 4.64,2.12 -15.81,31.91 -29.75,64.05 -41.72,96.19zm178.54 -309.77c-2,-9.9 -4.19,-19.64 -5.58,-28.97 -1.48,-10.23 -2.82,-20.11 -2.38,-29.21 0.22,-4.52 0.91,-8.99 2.12,-12.88 1.25,-3.87 3.11,-7.63 5.55,-10.78 2.39,-3.2 5.33,-5.77 8.4,-7.42 1.54,-0.85 3.14,-1.37 4.75,-1.78 0.93,-0.19 1.89,-0.31 2.92,-0.38 0.74,-0.04 1.51,-0.05 2.3,-0.02 3.91,0.17 8.46,1.15 13.67,2.31 5.16,1.13 11.12,2.44 18.08,2.22 0.07,0 0.14,-0.01 0.21,-0.01 3.43,-0.19 7.06,-0.85 10.55,-2.13 3.56,-1.35 6.89,-3.37 9.68,-5.76 5.66,-4.83 9.13,-10.79 11.56,-16.55 1.22,-2.91 2.18,-5.83 2.93,-8.75 0.76,-2.89 1.35,-5.91 1.78,-8.6 0.88,-5.45 1.47,-10.58 2.35,-15.22 0.89,-4.64 2.03,-8.8 3.78,-12.2 0.2,-0.44 0.43,-0.85 0.68,-1.25 0.24,-0.39 0.48,-0.86 0.68,-1.1 0.39,-0.61 0.87,-1.18 1.37,-1.74 1.07,-1.09 2.37,-2.1 3.84,-2.97 2.75,-1.55 6.09,-2.56 9.37,-2.75 0.28,-0.01 0.55,-0.02 0.82,-0.03 1.77,-0.05 3.53,0.1 5.11,0.52 0.42,0.06 0.79,0.21 1.17,0.33 0.39,0.13 0.75,0.21 1.22,0.45 0.88,0.41 1.79,0.77 2.66,1.19 6.82,3.49 12.23,9.91 15.92,17.74 -48.46,44.78 -94.17,93.84 -135.51,145.73z"/>
   <path class="fil3" d="M3662.12 1268.09c-25.1,1.41 -49.53,-7.67 -68.19,-26 -101.91,-100.06 -172.22,-252.69 -198,-429.77 -27.69,-190.15 -2.53,-390.67 72.74,-579.86 2.06,-5.18 7.9,-7.69 13.08,-5.64 5.16,2.05 7.68,7.9 5.63,13.07 -163.28,410.4 -62.89,807.59 120.66,987.81 18.71,18.39 44.9,24.83 70.02,17.22 25.25,-7.64 43.56,-27.61 48.98,-53.43 30.15,-143.74 102.36,-291.56 208.84,-427.45 99.23,-126.65 224.65,-236.95 353.19,-310.59 4.82,-2.76 10.96,-1.09 13.73,3.73 2.76,4.83 1.09,10.98 -3.73,13.74 -272.15,155.93 -494.11,447.17 -552.33,724.71 -6.96,33.13 -30.45,58.77 -62.85,68.57 -7.23,2.19 -14.53,3.47 -21.78,3.87z"/>
   <path class="fil2" d="M4174.03 735.81c-7.59,12.28 -20.25,20.93 -34.65,21.96 -30.2,2.15 -46.42,-26.98 -48.44,-53.56 -0.09,-1.14 -0.16,-2.28 -0.19,-3.42 -0.94,-21.18 4.01,-42.34 3.53,-63.61 -0.48,-23.25 -9.81,-49.03 -31.94,-57.39 -4.43,-1.67 -9.39,-2.11 -14.25,-1.46 -8.27,1.09 -16.19,5.39 -20.48,12.25 -6.54,10.49 -6.88,23.49 -9.09,35.61 -2.18,11.99 -7.58,24.99 -18.93,29.38 -7.88,3.04 -16.22,1.17 -24.66,-0.71 -6.48,-1.44 -13.04,-2.88 -19.47,-2.07 -14.54,1.85 -25.5,15.21 -29.2,29.39 -3.71,14.17 -1.65,29.16 0.42,43.67 3.16,22.28 12.61,53.42 10.97,75.85 -1.65,22.46 -13.38,45.58 -34.11,54.29 -13.72,5.75 -30.16,4.88 -42.18,13.59l-0.02 0.02c0,0 -0.06,0.06 -0.17,0.12 -0.57,0.42 -1.13,0.84 -1.65,1.3 -0.08,0.06 -0.17,0.14 -0.27,0.21 -14.83,12.77 -14.98,36.22 -13.63,56.18 -1.53,51.68 -40.14,35.21 -63.25,12.14 -2.28,-2.27 -4.99,-3.49 -7.73,-3.89 -7.89,-1.12 -16.17,4.79 -15.73,13.94 0,0.08 -0.01,0.18 0.02,0.26 0.61,8.91 1.81,18.12 -1.17,26.56 -4.69,13.32 -18.64,21.45 -24.41,34.33 -7.15,15.94 0.1,34.93 11.27,48.36 11.14,13.42 25.91,23.44 37.36,36.58 13,14.92 21.41,33.72 23.86,53.34 2.06,16.32 -0.57,34.41 -12.4,45.99 -12.69,12.36 -33.5,10.29 -44.57,-3.56 -7.07,-8.84 -14.24,-17.17 -22.82,-22.8 -6.5,-4.28 -13.8,-6.99 -22.44,-7.17l-14.12 -193.13 203.81 -268.89 64.14 -84.64 73.73 -97.26 49.02 -5.33 27.44 -1.56 35.53 -2.05c-16.17,17.76 -3.27,52.53 2.52,75.8 5.82,23.31 18,44.44 27.11,66.65 11.07,27.07 17.57,58.24 1.21,84.76z"/>
   <path class="fil3" d="M3703.62 1158.32c6,-0.42 12.28,0.49 18.09,2.61 5.83,2.12 11.16,5.32 15.77,9.01 4.66,3.65 8.8,7.68 12.61,11.81 1.9,2.06 3.76,4.14 5.55,6.17 1.39,1.36 2.74,2.73 4.37,3.73 3.14,2.16 6.86,3.38 10.55,3.64 3.7,0.42 7.34,-0.39 10.49,-1.85 1.55,-0.82 3.03,-1.73 4.3,-2.95l0.98 -0.87 0.98 -1.08c0.7,-0.68 1.21,-1.54 1.85,-2.29 2.24,-3.26 4.01,-7.01 5.07,-11.22 1.09,-4.17 1.61,-8.67 1.63,-13.28 0.05,-4.61 -0.43,-9.25 -1.32,-13.99 -1.79,-9.4 -4.94,-18.6 -9.51,-27.06 -2.28,-4.22 -4.9,-8.26 -7.82,-12.05 -2.91,-3.79 -6.12,-7.33 -9.74,-10.85 -7.17,-7.06 -15.53,-13.93 -23.62,-22.1 -4,-4.1 -7.98,-8.56 -11.52,-13.71 -3.5,-5.08 -6.38,-10.61 -8.58,-16.58 -2.2,-5.95 -3.54,-12.48 -3.51,-19.32 -0.06,-6.8 1.75,-13.99 5.02,-20.17 3.29,-6.11 7.44,-10.76 11.12,-14.85 3.7,-4.06 7.01,-7.66 9.27,-11.12 2.23,-3.52 3.29,-6.39 3.69,-10.55 0.4,-4.09 0.06,-8.93 -0.36,-14.33l-0.15 -2.07 -0.05 -0.51c-0.01,-0.21 -0.04,-0.56 -0.03,-0.83l0.04 -1.74c0.01,-1.14 0.11,-2.3 0.38,-3.47 0.21,-1.17 0.47,-2.32 0.92,-3.44 1.58,-4.55 4.68,-8.49 8.44,-11.14 3.76,-2.68 8.19,-4.22 12.79,-4.48 4.59,-0.27 9.4,0.89 13.4,3.31 1,0.6 1.99,1.23 2.83,1.99l1.3 1.12 0.59 0.53 0.32 0.31c0.87,0.84 1.74,1.7 2.64,2.51 1.77,1.64 3.64,3.19 5.54,4.68 3.8,2.92 7.8,5.6 11.86,7.61 4.03,2.04 8.2,3.47 11.69,3.78 1.74,0.17 3.28,0.1 4.46,-0.26 1.2,-0.33 2.13,-0.84 3.06,-1.62 1.85,-1.49 3.59,-4.76 4.68,-8.8 1.08,-4.07 1.61,-8.76 1.77,-13.58l0.02 0.98c-0.7,-10.72 -1.08,-21.93 0.98,-33.7 1.07,-5.86 2.82,-11.91 5.87,-17.73 3.02,-5.79 7.52,-11.28 13.07,-15.25 5.61,-4.02 11.79,-6.4 17.43,-7.93 5.67,-1.58 10.99,-2.47 15.78,-3.55 4.82,-1.07 9.08,-2.24 12.65,-4.06 3.65,-1.76 7.03,-4.19 10.04,-7.14 6.02,-5.9 10.59,-13.86 13.26,-22.5 1.35,-4.32 2.28,-8.8 2.74,-13.31 0.46,-4.47 0.41,-9.02 0.07,-13.85 -0.78,-9.63 -2.6,-19.6 -4.64,-29.7 -2.02,-10.15 -4.37,-20.35 -6.01,-31.28 -1.48,-10.41 -3.1,-21.34 -2.57,-33.13 0.3,-5.9 1.14,-11.84 3.03,-17.93 1.95,-6.06 4.78,-11.79 8.71,-16.92 3.87,-5.13 8.87,-9.73 14.99,-13.03 3.04,-1.65 6.42,-2.85 9.88,-3.65 3.53,-0.76 7.05,-0.97 10.35,-0.86 6.54,0.31 12.21,1.7 17.18,2.77 5,1.14 9.4,1.9 12.9,1.77 3.43,-0.22 5.9,-1.09 8.24,-3.1 2.36,-1.95 4.46,-5.18 6.04,-8.99 0.81,-1.9 1.49,-3.96 2.04,-6.1 0.56,-2.16 0.98,-4.26 1.38,-6.72 0.8,-4.86 1.4,-10.11 2.45,-15.73 1.07,-5.6 2.58,-11.65 5.6,-17.56 0.36,-0.74 0.75,-1.47 1.18,-2.19 0.43,-0.73 0.79,-1.41 1.38,-2.22 1.04,-1.59 2.23,-3.02 3.49,-4.4 2.54,-2.67 5.43,-4.86 8.46,-6.62 6.11,-3.45 12.82,-5.29 19.69,-5.44 3.43,-0.09 6.93,0.21 10.41,1.09 0.86,0.17 1.73,0.45 2.59,0.73 0.86,0.28 1.75,0.56 2.46,0.9 1.49,0.65 3.01,1.29 4.47,2.01 5.84,2.99 10.97,7.22 15.14,11.97 4.18,4.78 7.44,10.09 9.97,15.56 5.08,10.98 7.38,22.54 7.95,34.08 0.5,11.45 -0.56,22.27 -1.59,32.71 -1.05,10.43 -2.08,20.46 -1.93,30.09 0.04,2.39 0.15,4.8 0.36,7.1l0.36 3.39 0.58 3.36c0.91,4.44 2.08,8.87 3.88,12.95 1.78,4.07 3.89,7.94 6.48,11.27 2.61,3.29 5.58,6.06 8.83,8.14 3.24,2.14 6.87,3.26 10.64,3.87 0.96,0.08 1.91,0.28 2.88,0.32l2.97 -0.05c1.98,0 3.89,-0.32 5.79,-0.79 7.61,-1.85 14.63,-6.78 19.53,-13.4 1.27,-1.62 2.28,-3.41 3.33,-5.38 1.16,-1.87 1.9,-3.93 2.83,-5.91 1.49,-4.09 2.75,-8.3 3.35,-12.71 1.29,-8.8 0.73,-18.12 -1.21,-27.43 -0.92,-4.66 -2.2,-9.34 -3.71,-13.97 -1.48,-4.65 -3.2,-9.25 -5.07,-13.92 -3.84,-9.48 -8.03,-18.99 -12.07,-28.71 -8.22,-19.35 -15.82,-39.82 -19.78,-61.21 -1.09,-5.34 -1.76,-10.84 -2.22,-16.4 -0.5,-5.55 -0.4,-11.27 0.13,-16.99 0.5,-5.73 1.94,-11.56 4.22,-17.09 2.31,-5.52 5.77,-10.68 10.15,-14.73 2.05,-1.89 5.24,-1.77 7.14,0.28 1.64,1.78 1.77,4.42 0.43,6.33l-0.12 0.17c-5.22,7.46 -7.03,16.4 -6.84,25.77 0.26,9.4 2.11,19.07 4.72,28.68 1.23,4.81 2.77,9.62 4.34,14.42 1.58,4.83 3.16,9.6 4.98,14.29 3.64,9.41 7.57,18.83 11.82,28.28 4.23,9.46 8.58,19 12.7,28.84 4.19,10.02 7.87,20.58 10.06,31.74 2.28,11.09 3.08,22.93 1.33,34.81 -0.84,5.95 -2.58,11.81 -4.78,17.45 -1.27,2.76 -2.41,5.59 -3.98,8.18 -1.45,2.61 -3.08,5.33 -5.04,7.82 -7.62,10.03 -18.68,17.84 -31.46,20.8 -3.17,0.74 -6.45,1.25 -9.7,1.28l-4.85 0.02c-1.63,-0.08 -3.27,-0.35 -4.89,-0.54 -6.48,-1.02 -13,-3.26 -18.51,-6.88 -5.53,-3.57 -10.19,-8.08 -14.03,-13.01 -3.78,-4.96 -6.67,-10.34 -9.02,-15.84 -2.36,-5.51 -3.89,-11.23 -5.06,-16.99l-0.74 -4.36 -0.48 -4.4c-0.26,-2.9 -0.39,-5.71 -0.43,-8.54 -0.26,-22.51 4.46,-43.16 3.54,-62.17 -0.43,-9.27 -2.38,-18.56 -6.11,-26.55 -3.69,-8.01 -9.15,-14.57 -16.09,-18.11 -0.87,-0.42 -1.78,-0.78 -2.66,-1.19 -0.47,-0.24 -0.84,-0.32 -1.22,-0.45 -0.38,-0.12 -0.74,-0.27 -1.17,-0.33 -1.59,-0.42 -3.34,-0.57 -5.11,-0.52 -3.56,0.06 -7.23,1.11 -10.19,2.78 -1.47,0.86 -2.76,1.87 -3.84,2.97 -0.5,0.57 -0.98,1.14 -1.37,1.74 -0.2,0.24 -0.44,0.71 -0.68,1.1 -0.25,0.39 -0.48,0.81 -0.68,1.25 -1.75,3.4 -2.89,7.57 -3.78,12.2 -0.88,4.65 -1.47,9.77 -2.35,15.22 -0.43,2.69 -1.02,5.71 -1.78,8.6 -0.75,2.92 -1.71,5.84 -2.93,8.75 -2.43,5.77 -5.9,11.72 -11.56,16.55 -2.79,2.39 -6.11,4.41 -9.68,5.76 -3.56,1.3 -7.25,1.96 -10.76,2.14 -6.96,0.22 -12.92,-1.09 -18.08,-2.22 -5.21,-1.17 -9.76,-2.15 -13.67,-2.31 -1.92,-0.06 -3.64,0.06 -5.22,0.39 -1.61,0.41 -3.2,0.93 -4.75,1.78 -3.08,1.65 -6.01,4.21 -8.4,7.42 -2.44,3.15 -4.31,6.91 -5.55,10.78 -1.21,3.89 -1.9,8.36 -2.12,12.88 -0.44,9.11 0.9,18.99 2.38,29.21 1.46,9.72 3.77,19.89 5.83,30.22 2.08,10.36 4.07,20.95 4.98,32.15 0.41,5.58 0.5,11.51 -0.12,17.43 -0.61,5.88 -1.79,11.67 -3.56,17.32 -3.53,11.25 -9.47,22.07 -18.35,30.83 -4.43,4.35 -9.63,8.12 -15.38,10.89 -5.78,2.87 -11.71,4.39 -17.06,5.58 -5.39,1.2 -10.38,2.07 -14.77,3.31 -4.42,1.19 -8.07,2.76 -10.98,4.83 -5.89,4.15 -9.36,11.4 -10.94,20.26 -1.59,8.84 -1.4,18.68 -0.71,28.76l0 0.06c0.02,0.3 0.03,0.62 0.02,0.92 -0.22,5.9 -0.8,11.94 -2.47,18.26 -0.9,3.17 -1.99,6.38 -3.76,9.61 -1.66,3.2 -4.05,6.45 -7.22,9.16 -3.12,2.72 -7.05,4.78 -11.04,5.83 -4,1.09 -7.91,1.17 -11.5,0.84 -7.23,-0.72 -13.3,-3.08 -18.83,-5.83 -5.56,-2.76 -10.51,-6.11 -15.21,-9.71 -2.31,-1.85 -4.59,-3.72 -6.75,-5.72 -1.1,-0.97 -2.15,-2.01 -3.2,-3.03l-0.39 -0.39c-0.12,-0.11 -0.11,-0.08 -0.17,-0.13 -0.08,-0.06 -0.17,-0.12 -0.24,-0.19 -0.13,-0.17 -0.3,-0.23 -0.45,-0.31 -0.58,-0.35 -1.19,-0.51 -1.96,-0.48 -0.74,0.03 -1.58,0.33 -2.18,0.76 -0.62,0.44 -0.96,0.93 -1.14,1.45 -0.1,0.11 -0.09,0.28 -0.11,0.43 -0.07,0.13 -0.07,0.31 -0.06,0.5 0,0.1 -0.01,0.19 -0.03,0.28 -0.02,0.07 -0.01,0.05 -0.01,0.18l0.05 0.49 0.14 1.95c0.38,5.29 0.94,11.21 0.32,17.81 -0.33,3.3 -0.99,6.76 -2.19,10.19 -1.23,3.41 -2.86,6.54 -4.65,9.34 -3.64,5.53 -7.68,9.81 -11.16,13.7 -3.49,3.88 -6.42,7.44 -8.18,10.82 -3.47,6.46 -3.31,14.67 -0.21,22.93 1.52,4.09 3.68,8.13 6.31,11.85 2.59,3.67 5.79,7.24 9.33,10.77 7.07,7.03 15.43,13.7 23.63,21.63 4.08,3.95 8.13,8.35 11.76,13.06 3.64,4.71 6.88,9.7 9.71,14.9 5.64,10.42 9.68,21.73 11.67,33.46 2.03,11.67 2.3,24.2 -1.24,36.56 -1.74,6.16 -4.63,12.26 -8.65,17.72 -1.08,1.3 -2.07,2.69 -3.3,3.89l-1.77 1.85 -2.04 1.77c-2.75,2.36 -5.93,4.2 -9.22,5.69 -6.66,2.81 -13.98,3.85 -20.94,2.81 -6.96,-1 -13.57,-3.81 -19.01,-8.11 -2.78,-2.08 -5.14,-4.65 -7.25,-7.34 -1.58,-2.15 -3.1,-4.23 -4.67,-6.27 -3.15,-4.05 -6.32,-7.91 -9.72,-11.33 -6.78,-6.9 -14.68,-11.55 -24.2,-12.87l-0.12 -0.01c-2.76,-0.39 -4.7,-2.94 -4.32,-5.7 0.33,-2.41 2.32,-4.2 4.65,-4.35z"/>
   <path class="fil8" d="M3805.33 309.98c-10.41,45.14 -61.97,71.8 -115.15,59.52 -53.19,-12.28 -87.85,-58.81 -77.44,-103.95 10.42,-45.14 61.97,-71.8 115.16,-59.52 53.18,12.27 87.85,58.81 77.43,103.95z"/>
   <path class="fil9" d="M3620.36 290.82c-1.09,-7.66 -0.83,-15.51 0.96,-23.29 1.46,-6.32 3.85,-12.23 7.01,-17.66 3.77,0.45 7.58,0.93 11.39,1.43 -8.9,9.45 -15.31,20.93 -18.32,33.93 -0.43,1.87 -0.78,3.74 -1.06,5.59z"/>
   <path class="fil5" d="M3726.26 406.52c-10.44,0.59 -21.29,-0.28 -32.22,-2.81 -42.06,-9.71 -72.56,-40.85 -78.3,-75.78 14.77,23.86 40.54,42.8 72.46,50.16 11.71,2.71 23.34,3.64 34.57,3.01 36.63,-2.07 68.81,-20.87 84,-49.84 1.38,0.43 2.75,0.87 4.11,1.3 -0.24,3.87 -0.81,7.75 -1.7,11.62 -8.28,35.86 -42.53,60.06 -82.92,62.33z"/>
   <path class="fil7" d="M3810.88 332.57c-1.37,-0.43 -2.74,-0.87 -4.11,-1.3 1.52,-2.89 2.87,-5.89 4.04,-8.98 0.27,3.41 0.29,6.84 0.07,10.28z"/>
   <path class="fil10" d="M3721.9 363.52c-9.63,0.54 -19.66,-0.28 -29.74,-2.6 -38.37,-8.85 -66.3,-37.05 -71.56,-68.46 13.83,20.5 36.83,36.69 65.08,43.2 10.93,2.52 21.79,3.39 32.23,2.8 36.64,-2.06 68.22,-22.14 79.95,-52.65 0.91,7.33 0.59,14.79 -1.12,22.2 -7.36,31.93 -38.29,53.45 -74.84,55.52z"/>
   <path class="fil3" d="M3805.33 309.98l0.03 0 -0.03 0zm-109.15 -97.95c-36.56,2.06 -67.48,23.58 -74.85,55.5 -9.3,40.33 22.48,82.24 70.84,93.39 48.36,11.16 95.27,-12.58 104.58,-52.92 9.31,-40.33 -22.47,-82.23 -70.83,-93.39 -10.08,-2.32 -20.11,-3.12 -29.74,-2.58zm26.59 169.07c-11.23,0.62 -22.86,-0.3 -34.57,-3.01 -57.83,-13.34 -95.53,-64.72 -84.04,-114.52 11.49,-49.8 67.89,-79.47 125.73,-66.13 57.82,13.35 95.53,64.72 84.04,114.53l0 0c-9.17,39.73 -46.92,66.64 -91.16,69.13z"/>
   <path class="fil8" d="M3577.81 884.49c-10.41,45.15 -61.96,71.8 -115.15,59.53 -53.19,-12.28 -87.85,-58.81 -77.43,-103.96 10.41,-45.14 61.96,-71.8 115.15,-59.52 53.19,12.27 87.85,58.81 77.43,103.95z"/>
   <path class="fil5" d="M3503.04 983.66c-7.83,0.44 -15.89,0.06 -24.04,-1.22 -4.29,-12.28 -8.34,-24.83 -12.11,-37.53 9.48,1.83 18.89,2.42 27.99,1.92 3.48,-0.2 6.91,-0.56 10.28,-1.07 32.41,-4.93 59.45,-24.25 69.9,-52.17 1.1,-2.94 2.02,-5.97 2.74,-9.1 1.05,-4.5 1.63,-9.02 1.8,-13.51 7.69,15.64 10.31,33.09 6.33,50.33 -8.26,35.88 -42.51,60.07 -82.89,62.35z"/>
   <path class="fil6" d="M3479.01 982.44c-2.74,-0.43 -5.47,-0.96 -8.23,-1.6 -4.83,-1.12 -9.51,-2.52 -14.02,-4.18 -4.39,-12.59 -8.53,-25.41 -12.41,-38.49 5.8,2.4 11.92,4.36 18.31,5.84 1.41,0.32 2.83,0.62 4.24,0.89 3.77,12.71 7.82,25.25 12.11,37.53z"/>
   <path class="fil3" d="M3456.76 976.67c-4.57,-1.68 -8.96,-3.63 -13.15,-5.81 -4.29,-12.75 -8.29,-25.72 -12.02,-38.92 4.05,2.31 8.31,4.4 12.75,6.24 3.88,13.07 8.02,25.9 12.41,38.49z"/>
   <path class="fil10" d="M3494.89 946.83c-9.1,0.5 -18.51,-0.09 -27.99,-1.92 -1.41,-0.28 -2.83,-0.57 -4.24,-0.89 -6.39,-1.48 -12.5,-3.44 -18.31,-5.84 -4.44,-1.85 -8.7,-3.93 -12.75,-6.24 -0.01,0 -0.01,-0.01 -0.01,-0.01 1.06,0.6 2.13,1.18 3.2,1.75 8.51,4.51 17.87,8.02 27.86,10.32l0 0c10.93,2.52 21.81,3.42 32.25,2.82l0.01 0 0 0c0.01,0 0.01,0 0.02,0 3.46,-0.19 6.88,-0.55 10.24,-1.07 -3.37,0.51 -6.8,0.87 -10.28,1.07zm80.18 -53.24c1.04,-2.76 1.91,-5.63 2.61,-8.56l0.01 -0.01c0.04,-0.17 0.07,-0.35 0.12,-0.51l0 0c0.62,-2.7 1.08,-5.39 1.39,-8.07 0.21,-1.83 0.34,-3.65 0.41,-5.47 0,0.01 0,0.01 0,0.02 -0.17,4.49 -0.75,9.01 -1.8,13.51 -0.72,3.13 -1.63,6.16 -2.74,9.1z"/>
   <path class="fil5" d="M3505.96 945.64c31.9,-5.1 58.48,-24.18 68.96,-51.65 -10.47,27.48 -37.05,46.55 -68.96,51.65zm68.94 -103.54c-0.01,-0.01 -0.02,-0.03 -0.02,-0.04 0,0.01 0.01,0.03 0.02,0.04zm-0.05 -0.12c-0.02,-0.04 -0.03,-0.07 -0.04,-0.1 0.01,0.03 0.02,0.06 0.04,0.1zm-0.05 -0.12c-2.46,-6.63 -5.82,-13.01 -9.97,-19 -2.37,-3.44 -5,-6.76 -7.89,-9.92 0,-0.01 0,-0.01 0,-0.01 7.9,8.69 13.98,18.51 17.86,28.93z"/>
   <path class="fil10" d="M3494.92 946.82l-0.01 0c-10.45,0.59 -21.32,-0.29 -32.25,-2.82l0 0c-10,-2.3 -19.34,-5.82 -27.86,-10.32 -1.08,-0.57 -2.15,-1.17 -3.2,-1.76 0,0 0,0 0,0.01 -18.44,-10.53 -32.66,-25.71 -40.74,-42.95 -0.73,-4.42 -1.07,-8.9 -1,-13.39 13.43,12.73 31.1,22.47 51.46,27.16 10.93,2.53 21.81,3.41 32.26,2.82 40.4,-2.28 74.62,-26.47 82.91,-62.34 1.16,-4.99 1.74,-9.97 1.84,-14.94 8.64,8.2 15.53,17.65 20.3,27.82l0 0c-1.96,-11.74 -6.71,-23.05 -13.77,-33.26 4.15,6 7.51,12.38 9.97,19 0,0.01 0,0.01 0.01,0.02 0.01,0.03 0.02,0.06 0.04,0.1 0.01,0.03 0.02,0.06 0.03,0.08 0,0.01 0.01,0.03 0.02,0.04 3.41,9.26 5.07,19.02 4.7,28.87 -0.01,-0.01 -0.01,-0.02 -0.02,-0.03 -0.06,1.83 -0.19,3.65 -0.39,5.5 -0.31,2.68 -0.77,5.38 -1.39,8.07l0 0c-0.05,0.17 -0.08,0.34 -0.12,0.51l-0.01 0.01c-0.73,3.07 -1.65,6.06 -2.75,8.95 -10.48,27.47 -37.05,46.55 -68.96,51.65 -3.62,0.58 -7.29,0.97 -11.03,1.18 -0.01,0 -0.01,0 -0.02,0z"/>
   <path class="fil11" d="M3494.92 946.82l0 0c0.01,0 0.01,0 0.02,0 -0.01,0 -0.01,0 -0.02,0zm-0.01 0c-10.45,0.6 -21.32,-0.29 -32.25,-2.82l0 0c10.93,2.52 21.81,3.41 32.25,2.82zm-60.12 -13.14c-1.07,-0.57 -2.15,-1.16 -3.2,-1.75 0,-0.01 0,-0.01 0,-0.01 1.06,0.6 2.12,1.19 3.2,1.76zm142.89 -48.65l0.01 -0.01 -0.01 0.01zm0.13 -0.52l0 0zm1.39 -8.07c0.2,-1.85 0.34,-3.67 0.39,-5.5 0.01,0.01 0.01,0.02 0.02,0.03 -0.07,1.82 -0.2,3.64 -0.41,5.47z"/>
   <path class="fil12" d="M3390.86 889c-7.18,-15.3 -9.51,-32.23 -5.65,-48.94 0.03,-0.1 0.06,-0.21 0.07,-0.31 -0.02,0.1 -0.05,0.21 -0.06,0.31 -3.87,16.72 -1.53,33.64 5.64,48.94l0 0z"/>
   <path class="fil4" d="M3556.96 812.94c-13.94,-15.31 -33.52,-27.08 -56.58,-32.4 -7.9,-1.83 -15.77,-2.79 -23.47,-2.96 7.69,0.17 15.55,1.13 23.45,2.95 23.08,5.32 42.66,17.09 56.6,32.4 0,0 0,0 0,0.01z"/>
   <path class="fil13" d="M3390.86 889c-7.17,-15.3 -9.5,-32.22 -5.64,-48.94 0.02,-0.1 0.05,-0.21 0.06,-0.31 8.41,-35.7 42.57,-59.75 82.85,-62.02 2.89,-0.17 5.81,-0.22 8.77,-0.15 7.69,0.17 15.56,1.13 23.47,2.96 23.06,5.32 42.65,17.09 56.58,32.4 0.97,5.05 1.44,10.18 1.36,15.35 -13.44,-12.75 -31.11,-22.48 -51.49,-27.19 -10.92,-2.52 -21.78,-3.39 -32.22,-2.8 -40.41,2.27 -74.64,26.47 -82.92,62.33 -1.16,4.99 -1.74,9.99 -1.84,14.97 -1.78,-1.7 -3.49,-3.43 -5.11,-5.22 1.24,6.38 3.31,12.62 6.11,18.61 0,0 0.01,0.02 0.01,0.02z"/>
   <path class="fil14" d="M3390.85 888.98c-2.81,-5.99 -4.88,-12.23 -6.11,-18.61 1.63,1.79 3.33,3.53 5.11,5.22 -0.07,4.49 0.27,8.97 1,13.39z"/>
   <path class="fil15" d="M3564.84 822.85c-2.37,-3.43 -5,-6.75 -7.89,-9.91 0,-0.01 0,-0.01 0,-0.01 2.88,3.16 5.52,6.47 7.89,9.92z"/>
   <path class="fil14" d="M3578.61 856.11c-4.76,-10.17 -11.66,-19.62 -20.3,-27.82 0.08,-5.17 -0.39,-10.3 -1.36,-15.35 2.88,3.16 5.52,6.47 7.89,9.91 7.06,10.21 11.81,21.52 13.77,33.26z"/>
   <path class="fil3" d="M3468.55 786.51c-13.39,0.75 -26.26,4.15 -37.75,10.09 -19.41,10.03 -32.55,26.18 -36.99,45.44 -4.44,19.27 0.29,39.54 13.35,57.07 13.38,17.96 33.79,30.86 57.48,36.32 23.69,5.46 47.7,2.81 67.58,-7.46 19.42,-10.04 32.56,-26.18 37,-45.45l0 0c4.44,-19.27 -0.29,-39.53 -13.35,-57.06 -13.38,-17.96 -33.8,-30.86 -57.48,-36.33 -10,-2.3 -20.06,-3.17 -29.84,-2.62zm26.92 169.13c-11.44,0.65 -23.16,-0.35 -34.8,-3.03 -27.75,-6.4 -51.78,-21.67 -67.66,-42.98 -16.2,-21.74 -22.02,-47.15 -16.39,-71.55 5.63,-24.39 21.99,-44.68 46.08,-57.14 23.6,-12.19 51.88,-15.39 79.65,-8.98 27.75,6.4 51.78,21.66 67.66,42.97 16.19,21.75 22.02,47.15 16.39,71.55 -5.63,24.4 -21.99,44.69 -46.08,57.14 -13.72,7.09 -29,11.13 -44.85,12.02z"/>
   <path class="fil8" d="M3959.1 512.92c-8.6,37.28 -51.18,59.29 -95.11,49.16 -43.92,-10.14 -72.55,-48.57 -63.95,-85.85 8.6,-37.28 51.18,-59.29 95.1,-49.16 43.92,10.14 72.55,48.57 63.96,85.85z"/>
   <path class="fil5" d="M3893.65 606.89c-8.63,0.49 -17.6,-0.24 -26.63,-2.32 -43.91,-10.15 -72.55,-48.59 -63.94,-85.84 0.28,-1.2 0.57,-2.38 0.95,-3.53 9.24,20.94 29.4,38.41 55.51,45.74 0.03,0.01 0.06,0.02 0.08,0.03 0.02,0 0.04,0.01 0.05,0.01 1.38,0.39 2.78,0.74 4.2,1.07 0.04,0.01 0.07,0.02 0.11,0.03l0 0c0.06,0.01 0.1,0.02 0.15,0.04 1.85,0.42 3.71,0.79 5.55,1.1 7.1,1.19 14.12,1.56 20.92,1.18 17.09,-0.96 32.84,-6.67 45.06,-15.99 10.67,-8.13 18.65,-19 22.47,-31.88 5.41,12.23 7.06,25.62 3.98,38.87 -6.83,29.63 -35.1,49.61 -68.47,51.49z"/>
   <path class="fil10" d="M3890.62 564.4c-6.8,0.38 -13.83,0.01 -20.92,-1.18 7.1,1.19 14.1,1.57 20.91,1.18 2,-0.12 3.98,-0.29 5.94,-0.53l0 0c0.12,-0.02 0.25,-0.04 0.37,-0.05 0,0 0,0 0.01,0 0.06,-0.01 0.11,-0.02 0.17,-0.02 0.01,0 0.01,0 0.02,-0.01 0.06,0 0.11,-0.01 0.17,-0.02 0.01,0 0.02,0 0.03,0 0.06,-0.01 0.1,-0.02 0.16,-0.03 0.01,0 0.02,0 0.03,0 0.06,-0.01 0.1,-0.02 0.15,-0.03 0.02,0 0.03,0 0.05,0 0.05,-0.01 0.1,-0.01 0.15,-0.02 0.01,0 0.02,0 0.04,-0.01 0.05,0 0.09,-0.01 0.14,-0.02 0.02,0 0.04,0 0.06,-0.01 0.04,0 0.09,-0.01 0.13,-0.02 0.02,0 0.04,0 0.05,-0.01 0.06,0 0.1,-0.01 0.15,-0.01 0.01,-0.01 0.03,-0.01 0.05,-0.01 0.05,-0.01 0.08,-0.02 0.13,-0.03 0.02,0 0.04,0 0.06,0 0.05,-0.01 0.09,-0.02 0.14,-0.02 0.01,-0.01 0.04,-0.01 0.06,-0.01 0.05,-0.01 0.08,-0.02 0.13,-0.03 0.02,0 0.03,0 0.05,0 0.05,-0.01 0.09,-0.02 0.14,-0.02 0.02,-0.01 0.04,-0.01 0.05,-0.01 0.05,-0.01 0.09,-0.02 0.14,-0.03 0.02,0 0.04,0 0.06,-0.01 0.05,0 0.08,-0.01 0.13,-0.02 0.03,0 0.06,-0.01 0.08,-0.01 0.06,-0.01 0.11,-0.02 0.17,-0.03 0.04,-0.01 0.07,-0.01 0.12,-0.02 0.03,0 0.06,-0.01 0.08,-0.01 0.04,-0.01 0.06,-0.02 0.1,-0.02 0.02,-0.01 0.05,-0.01 0.06,-0.02 0.05,0 0.08,-0.01 0.13,-0.02 0.02,0 0.04,-0.01 0.06,-0.01 0.04,-0.01 0.07,-0.01 0.12,-0.02 0.02,0 0.05,-0.01 0.06,-0.01 0.04,-0.01 0.08,-0.02 0.12,-0.02 0.02,-0.01 0.05,-0.01 0.06,-0.02 0.04,-0.01 0.08,-0.02 0.12,-0.02 0.02,0 0.05,0 0.06,-0.01 0.05,-0.01 0.08,-0.02 0.12,-0.02 0.03,-0.01 0.05,-0.01 0.06,-0.01 0.04,-0.01 0.08,-0.02 0.13,-0.03 0.02,0 0.04,0 0.06,-0.01 0.05,-0.01 0.08,-0.02 0.13,-0.03 0.02,0 0.05,0 0.06,-0.01 0.04,-0.01 0.08,-0.02 0.12,-0.02 0.02,0 0.04,-0.01 0.06,-0.01 0.05,-0.01 0.09,-0.02 0.14,-0.03 0.01,0 0.04,-0.01 0.05,-0.01 0.05,-0.01 0.09,-0.02 0.14,-0.03 0.02,0 0.03,0 0.05,-0.01 0.05,-0.01 0.09,-0.01 0.14,-0.03 0.02,0 0.04,0 0.05,-0.01 0.06,0 0.1,-0.01 0.15,-0.03 0.01,0 0.03,0 0.04,0 0.06,-0.01 0.1,-0.02 0.16,-0.03 0.01,0 0.02,-0.01 0.03,-0.01 0.06,-0.01 0.1,-0.02 0.16,-0.03 0.01,0 0.02,-0.01 0.03,-0.01 0.06,-0.01 0.11,-0.02 0.16,-0.03 0.02,0 0.03,-0.01 0.04,-0.01 0.06,-0.01 0.11,-0.02 0.17,-0.03 0,0 0.01,-0.01 0.01,-0.01 0.06,-0.01 0.12,-0.02 0.17,-0.04l0.01 0c2.3,-0.46 4.55,-1.01 6.77,-1.65 0.01,0 0.01,0 0.02,0 0.05,-0.02 0.11,-0.04 0.17,-0.05 0,-0.01 0,-0.01 0.01,-0.01 0.06,-0.01 0.11,-0.03 0.17,-0.05 0.01,0 0.01,0 0.02,0 0.06,-0.02 0.1,-0.04 0.16,-0.06 0.01,0 0.02,0 0.02,0 0.06,-0.02 0.11,-0.04 0.17,-0.05 0.01,-0.01 0.01,-0.01 0.02,-0.01 0.06,-0.01 0.1,-0.03 0.16,-0.05 0,0 0.02,0 0.03,0 0.05,-0.02 0.1,-0.04 0.15,-0.06 0.01,0 0.02,0 0.03,0 0.05,-0.02 0.1,-0.04 0.15,-0.06 0.01,0 0.02,0 0.03,0 0.06,-0.02 0.1,-0.04 0.15,-0.05 0.02,-0.01 0.02,-0.01 0.03,-0.01 0.06,-0.02 0.1,-0.03 0.15,-0.05 0.01,0 0.03,-0.01 0.04,-0.02 0.05,-0.01 0.09,-0.02 0.14,-0.04 0.01,0 0.03,-0.01 0.05,-0.01 0.04,-0.02 0.08,-0.04 0.13,-0.05 0.02,0 0.03,-0.01 0.04,-0.01 0.06,-0.02 0.1,-0.03 0.16,-0.05 0.01,0 0.02,-0.01 0.03,-0.01 0.05,-0.02 0.09,-0.04 0.14,-0.05 0.01,-0.01 0.02,-0.01 0.04,-0.01 0.06,-0.02 0.1,-0.04 0.16,-0.06 0.01,0 0.01,0 0.02,0 0.06,-0.02 0.11,-0.04 0.17,-0.06 0,-0.01 0.01,-0.01 0.02,-0.01 0.06,-0.02 0.11,-0.04 0.17,-0.06 0.03,-0.01 0.06,-0.02 0.09,-0.03 0.03,-0.01 0.05,-0.02 0.07,-0.03 0.05,-0.01 0.08,-0.02 0.12,-0.04 0.02,-0.01 0.04,-0.02 0.06,-0.02 0.04,-0.01 0.08,-0.03 0.13,-0.05 0.01,0 0.03,0 0.04,-0.01 0.05,-0.01 0.08,-0.03 0.13,-0.04 0.01,-0.01 0.04,-0.02 0.05,-0.02 0.05,-0.02 0.09,-0.04 0.14,-0.05 0.01,-0.01 0.02,-0.01 0.03,-0.02 0.05,-0.01 0.09,-0.03 0.14,-0.05 0.01,0 0.02,0 0.04,0 0.05,-0.02 0.09,-0.04 0.15,-0.06 0,-0.01 0.01,-0.01 0.02,-0.01 0.05,-0.02 0.1,-0.04 0.15,-0.06 0.01,0 0.01,0 0.02,0 7.9,-2.74 15.16,-6.58 21.48,-11.4 -12.22,9.32 -27.97,15.03 -45.06,15.99zm-30.93 -3.42c-0.01,0 -0.03,-0.01 -0.05,-0.01 0.02,0 0.03,0.01 0.05,0.01zm-0.13 -0.04c-26.11,-7.33 -46.27,-24.8 -55.51,-45.74 0,0 0,-0.01 0,-0.01 7.14,16.19 20.8,30.31 38.71,39.27 0.01,0.01 0.03,0.01 0.04,0.02 0.02,0.01 0.04,0.02 0.06,0.03 5.22,2.62 10.82,4.78 16.71,6.44z"/>
   <path class="fil5" d="M3868.46 563c-1.44,-0.27 -2.88,-0.56 -4.32,-0.89 -0.05,-0.02 -0.1,-0.03 -0.15,-0.04l0 0c-0.04,-0.01 -0.07,-0.02 -0.11,-0.03 -0.39,-0.09 -0.77,-0.18 -1.16,-0.28 0.42,0.1 0.84,0.2 1.27,0.3 1.5,0.34 2.98,0.65 4.47,0.93zm-5.76 -1.23c-0.03,-0.01 -0.05,-0.02 -0.06,-0.02 0.02,0 0.04,0.01 0.06,0.02zm95.44 -45.24c0,0 0,0 0,0 0.35,-1.18 0.67,-2.39 0.95,-3.61 0.32,-1.42 0.6,-2.85 0.82,-4.26 -0.22,1.42 -0.5,2.85 -0.82,4.27 -0.28,1.21 -0.61,2.42 -0.95,3.6zm1.77 -7.88c0,-0.01 0,-0.02 0.01,-0.04 -0.01,0.02 -0.01,0.03 -0.01,0.04z"/>
   <path class="fil10" d="M3890.61 564.4c-7.2,0.4 -14.63,-0.04 -22.14,-1.4 -1.49,-0.28 -2.97,-0.59 -4.47,-0.93 -0.42,-0.1 -0.84,-0.2 -1.27,-0.3 -0.01,0 -0.01,0 -0.02,0 -0.03,-0.01 -0.05,-0.02 -0.06,-0.02 -7.03,-1.74 -13.66,-4.19 -19.79,-7.25 -0.03,-0.01 -0.04,-0.02 -0.06,-0.03 -0.01,-0.01 -0.03,-0.01 -0.04,-0.02 -17.91,-8.97 -31.57,-23.12 -38.69,-39.31 -0.01,0.01 -0.01,0.03 -0.02,0.05 -1.43,-3.25 -2.6,-6.58 -3.49,-9.97 0.24,-2.61 0.65,-5.22 1.22,-7.83 11.32,17.49 30.65,31.33 54.5,36.83 9.02,2.07 17.99,2.8 26.62,2.31 33.37,-1.87 61.65,-21.86 68.48,-51.49 0.04,-0.15 0.06,-0.29 0.1,-0.44 4.06,6.26 7.09,13 8.92,19.98 -0.11,1.34 -0.28,2.69 -0.48,4.04 -0.01,0.02 -0.01,0.03 -0.01,0.04l0 0.01c-0.22,1.41 -0.5,2.84 -0.82,4.26 -0.28,1.22 -0.61,2.42 -0.95,3.61 -0.01,-0.02 -0.01,-0.03 -0.02,-0.05 -6.06,20.52 -22.69,35.98 -43.93,43.33 -0.01,0 -0.02,0 -0.02,0 -0.05,0.02 -0.1,0.04 -0.15,0.06 -0.01,0 -0.02,0.01 -0.02,0.01 -0.05,0.02 -0.1,0.04 -0.15,0.06 -0.02,0 -0.03,0 -0.04,0 -0.05,0.02 -0.09,0.04 -0.14,0.05 -0.01,0.01 -0.02,0.01 -0.03,0.02 -0.06,0.01 -0.09,0.03 -0.14,0.05 -0.02,0 -0.04,0.01 -0.05,0.02 -0.05,0.01 -0.08,0.02 -0.13,0.04 -0.02,0.01 -0.03,0.01 -0.04,0.01 -0.05,0.02 -0.09,0.04 -0.13,0.05 -0.02,0 -0.04,0.01 -0.06,0.02 -0.05,0.02 -0.07,0.03 -0.12,0.04 -0.02,0.01 -0.05,0.02 -0.07,0.03 -0.04,0.01 -0.06,0.02 -0.09,0.03 -0.06,0.02 -0.11,0.04 -0.17,0.06 -0.01,0 -0.02,0 -0.02,0.01 -0.06,0.02 -0.11,0.04 -0.17,0.06 -0.01,0 -0.02,0 -0.02,0 -0.06,0.02 -0.1,0.04 -0.16,0.06 -0.01,0 -0.03,0 -0.04,0.01 -0.05,0.01 -0.09,0.03 -0.14,0.05 -0.01,0 -0.03,0 -0.03,0.01 -0.06,0.02 -0.1,0.03 -0.16,0.05 -0.01,0 -0.02,0.01 -0.04,0.01 -0.05,0.01 -0.09,0.03 -0.13,0.05 -0.02,0 -0.04,0.01 -0.05,0.01 -0.05,0.02 -0.09,0.03 -0.14,0.04 -0.01,0.01 -0.03,0.02 -0.04,0.02 -0.05,0.02 -0.09,0.03 -0.15,0.05 -0.01,0 -0.02,0.01 -0.03,0.01 -0.05,0.01 -0.09,0.03 -0.15,0.05 -0.01,0 -0.02,0 -0.03,0 -0.05,0.02 -0.1,0.04 -0.15,0.06 -0.01,0 -0.02,0 -0.03,0 -0.05,0.02 -0.1,0.04 -0.15,0.06 -0.01,0 -0.03,0 -0.03,0 -0.06,0.02 -0.1,0.04 -0.16,0.05 -0.01,0 -0.01,0 -0.02,0.01 -0.06,0.01 -0.11,0.03 -0.17,0.05 0,0 -0.01,0 -0.02,0 -0.05,0.02 -0.1,0.04 -0.16,0.06 -0.01,0 -0.01,0 -0.02,0 -0.06,0.02 -0.11,0.04 -0.17,0.05 0,0 -0.01,0 -0.01,0.01 -0.06,0.01 -0.12,0.03 -0.17,0.05 -0.01,0 -0.02,0 -0.02,0 -2.21,0.64 -4.47,1.19 -6.77,1.65l-0.01 0c-0.06,0.02 -0.11,0.03 -0.17,0.04 0,0 -0.01,0.01 -0.01,0.01 -0.06,0.01 -0.11,0.02 -0.17,0.03 -0.01,0 -0.03,0.01 -0.04,0.01 -0.05,0.01 -0.1,0.02 -0.16,0.03 -0.01,0 -0.02,0 -0.03,0.01 -0.06,0.01 -0.1,0.02 -0.16,0.03 -0.01,0 -0.02,0.01 -0.03,0.01 -0.06,0.01 -0.1,0.02 -0.16,0.03 -0.01,0 -0.03,0 -0.04,0 -0.05,0.02 -0.09,0.03 -0.15,0.03 -0.01,0.01 -0.03,0.01 -0.05,0.01 -0.05,0.02 -0.09,0.02 -0.14,0.03 -0.02,0.01 -0.03,0.01 -0.05,0.01 -0.05,0.01 -0.09,0.02 -0.14,0.03 -0.01,0 -0.04,0.01 -0.05,0.01 -0.05,0.01 -0.09,0.02 -0.14,0.03 -0.02,0 -0.04,0.01 -0.06,0.01 -0.04,0 -0.08,0.01 -0.12,0.02 -0.03,0.01 -0.05,0.01 -0.06,0.01 -0.05,0.01 -0.08,0.02 -0.13,0.03 -0.02,0.01 -0.04,0.01 -0.06,0.01 -0.05,0.01 -0.09,0.02 -0.13,0.03 -0.02,0 -0.04,0 -0.06,0.01 -0.04,0 -0.07,0.01 -0.12,0.02 -0.02,0.01 -0.04,0.01 -0.06,0.01 -0.04,0.01 -0.08,0.01 -0.12,0.02 -0.02,0.01 -0.05,0.01 -0.06,0.02 -0.05,0 -0.08,0.01 -0.12,0.02 -0.03,0 -0.05,0.01 -0.06,0.01 -0.05,0.01 -0.08,0.01 -0.12,0.02 -0.03,0 -0.05,0.01 -0.06,0.01 -0.05,0.01 -0.08,0.02 -0.13,0.02 -0.02,0.01 -0.04,0.01 -0.06,0.02 -0.04,0 -0.06,0.01 -0.1,0.02 -0.03,0 -0.06,0.01 -0.08,0.01 -0.05,0.01 -0.08,0.01 -0.12,0.02 -0.06,0.01 -0.11,0.02 -0.17,0.03 -0.03,0 -0.06,0.01 -0.08,0.01 -0.05,0.01 -0.08,0.02 -0.13,0.02 -0.02,0.01 -0.04,0.01 -0.06,0.01 -0.05,0.01 -0.09,0.02 -0.14,0.03 -0.02,0 -0.03,0 -0.05,0.01 -0.05,0 -0.09,0.01 -0.14,0.02 -0.02,0 -0.04,0 -0.05,0 -0.05,0.01 -0.09,0.02 -0.13,0.03 -0.02,0 -0.05,0 -0.06,0.01 -0.05,0 -0.09,0.01 -0.14,0.02 -0.02,0 -0.03,0 -0.06,0 -0.05,0.01 -0.08,0.02 -0.13,0.03 -0.02,0 -0.04,0 -0.05,0.01 -0.05,0 -0.09,0.01 -0.15,0.01 -0.01,0.01 -0.03,0.01 -0.05,0.01 -0.04,0.01 -0.08,0.02 -0.13,0.02 -0.03,0.01 -0.04,0.01 -0.06,0.01 -0.05,0.01 -0.09,0.02 -0.14,0.02 -0.02,0.01 -0.03,0.01 -0.04,0.01 -0.05,0.01 -0.1,0.01 -0.15,0.02 -0.02,0 -0.03,0 -0.05,0 -0.05,0.01 -0.09,0.02 -0.15,0.03 -0.01,0 -0.02,0 -0.03,0 -0.06,0.01 -0.1,0.02 -0.16,0.03 -0.01,0 -0.02,0 -0.03,0 -0.06,0.01 -0.11,0.02 -0.17,0.02 0,0 -0.01,0.01 -0.02,0.01 -0.06,0 -0.11,0.01 -0.17,0.02 -0.01,0 -0.01,0 -0.01,0 -0.12,0.01 -0.25,0.03 -0.37,0.05l0 0c-1.96,0.24 -3.94,0.41 -5.94,0.53z"/>
   <path class="fil7" d="M3869.69 563.22c-1.85,-0.31 -3.7,-0.68 -5.55,-1.1 1.44,0.33 2.88,0.62 4.32,0.89 0.41,0.07 0.82,0.14 1.23,0.21zm-5.7 -1.14l0 0c-0.04,-0.01 -0.07,-0.02 -0.11,-0.03 0.04,0.01 0.07,0.02 0.11,0.03l0 0zm71.69 -13.67c10.66,-8.13 18.64,-19 22.47,-31.88 0,0 0,0 0,0 -3.82,12.87 -11.8,23.75 -22.47,31.88z"/>
   <path class="fil11" d="M3890.61 564.4c-6.81,0.39 -13.82,0.01 -20.91,-1.18 -0.41,-0.07 -0.82,-0.14 -1.23,-0.21 7.51,1.36 14.95,1.8 22.14,1.4 2,-0.12 3.98,-0.29 5.94,-0.53 -1.96,0.24 -3.94,0.41 -5.94,0.53zm5.94 -0.53c0.12,-0.02 0.25,-0.04 0.37,-0.05 -0.12,0.01 -0.25,0.03 -0.37,0.05zm0.38 -0.05c0.06,-0.01 0.11,-0.02 0.17,-0.02 -0.06,0 -0.11,0.01 -0.17,0.02zm0.18 -0.03c0.06,0 0.11,-0.01 0.17,-0.02 -0.06,0.01 -0.11,0.02 -0.17,0.02zm0.19 -0.02c0.06,-0.01 0.1,-0.02 0.16,-0.03 -0.06,0.01 -0.1,0.02 -0.16,0.03zm0.18 -0.03c0.06,-0.01 0.1,-0.02 0.15,-0.03 -0.05,0.01 -0.09,0.02 -0.15,0.03zm0.19 -0.03c0.05,-0.01 0.1,-0.01 0.15,-0.02 -0.05,0.01 -0.1,0.01 -0.15,0.02zm0.18 -0.03c0.05,0 0.09,-0.01 0.14,-0.02 -0.05,0.01 -0.09,0.02 -0.14,0.02zm0.19 -0.03c0.05,0 0.09,-0.01 0.13,-0.02 -0.04,0.01 -0.09,0.02 -0.13,0.02zm0.17 -0.03c0.06,0 0.1,-0.01 0.15,-0.01 -0.05,0 -0.09,0.01 -0.15,0.01zm0.19 -0.02c0.05,-0.01 0.08,-0.02 0.13,-0.03 -0.05,0.01 -0.08,0.02 -0.13,0.03zm0.18 -0.03c0.05,-0.01 0.09,-0.02 0.14,-0.02 -0.05,0 -0.09,0.01 -0.14,0.02zm0.19 -0.03c0.04,-0.01 0.08,-0.02 0.13,-0.03 -0.05,0.01 -0.08,0.02 -0.13,0.03zm0.17 -0.03c0.05,-0.01 0.09,-0.02 0.14,-0.02 -0.05,0 -0.09,0.01 -0.14,0.02zm0.18 -0.03c0.05,-0.01 0.09,-0.02 0.14,-0.03 -0.05,0.01 -0.09,0.02 -0.14,0.03zm0.19 -0.04c0.05,0 0.08,-0.01 0.13,-0.02 -0.05,0.01 -0.08,0.02 -0.13,0.02zm0.21 -0.03c0.06,-0.01 0.11,-0.02 0.17,-0.03 -0.06,0.01 -0.11,0.02 -0.17,0.03zm0.28 -0.05c0.03,0 0.06,-0.01 0.08,-0.01 -0.03,0 -0.06,0.01 -0.08,0.01zm0.18 -0.03c0.03,-0.01 0.05,-0.01 0.06,-0.02 -0.02,0.01 -0.05,0.01 -0.06,0.02zm0.19 -0.04c0.02,0 0.04,-0.01 0.06,-0.01 -0.03,0 -0.05,0.01 -0.06,0.01zm0.18 -0.03c0.02,0 0.04,-0.01 0.06,-0.01 -0.02,0 -0.05,0.01 -0.06,0.01zm0.18 -0.03c0.02,-0.01 0.05,-0.01 0.06,-0.02 -0.02,0.01 -0.05,0.01 -0.06,0.02zm0.18 -0.04c0.03,0 0.05,0 0.06,-0.01 -0.02,0.01 -0.05,0.01 -0.06,0.01zm0.18 -0.03c0.03,-0.01 0.05,-0.01 0.06,-0.01 -0.02,0 -0.04,0 -0.06,0.01zm0.19 -0.04c0.02,0 0.04,0 0.06,-0.01 -0.02,0.01 -0.04,0.01 -0.06,0.01zm0.18 -0.04c0.02,0 0.04,0 0.06,-0.01 -0.02,0.01 -0.05,0.01 -0.06,0.01zm0.18 -0.03c0.02,0 0.04,-0.01 0.06,-0.01 -0.02,0 -0.04,0.01 -0.06,0.01zm0.19 -0.04c0.01,0 0.04,-0.01 0.05,-0.01 -0.01,0 -0.04,0.01 -0.05,0.01zm0.18 -0.04c0.02,0 0.03,0 0.05,-0.01 -0.02,0.01 -0.03,0.01 -0.05,0.01zm0.18 -0.04c0.02,0 0.04,0 0.05,-0.01 -0.01,0.01 -0.03,0.01 -0.05,0.01zm0.19 -0.04c0.01,0 0.03,0 0.04,0 -0.01,0 -0.03,0 -0.04,0zm0.19 -0.03c0.01,0 0.02,-0.01 0.03,-0.01 -0.01,0 -0.02,0.01 -0.03,0.01zm0.18 -0.04c0.01,-0.01 0.02,-0.01 0.03,-0.01 -0.01,0 -0.02,0.01 -0.03,0.01zm0.18 -0.04c0.01,0 0.03,-0.01 0.04,-0.01 -0.01,0 -0.02,0.01 -0.04,0.01zm0.2 -0.04c0,0 0.01,-0.01 0.01,-0.01 0,0 -0.01,0.01 -0.01,0.01zm0.18 -0.05l0.01 0 -0.01 0zm6.78 -1.65c0,0 0.01,0 0.02,0 -0.01,0 -0.01,0 -0.02,0zm0.18 -0.05c0,-0.01 0.01,-0.01 0.01,-0.01 -0.01,0 -0.01,0 -0.01,0.01zm0.17 -0.06c0.01,0 0.01,0 0.02,0 -0.01,0 -0.01,0 -0.02,0zm0.17 -0.06c0.01,0 0.02,0 0.02,0 0,0 -0.01,0 -0.02,0zm0.18 -0.05c0.01,-0.01 0.01,-0.01 0.02,-0.01 -0.01,0 -0.01,0 -0.02,0.01zm0.17 -0.06c0,0 0.02,0 0.03,0 -0.01,0 -0.03,0 -0.03,0zm0.17 -0.06c0.01,0 0.02,0 0.03,0 -0.01,0 -0.02,0 -0.03,0zm0.17 -0.06c0.01,0 0.02,0 0.03,0 -0.01,0 -0.02,0 -0.03,0zm0.17 -0.05c0.01,0 0.02,-0.01 0.03,-0.01 -0.01,0 -0.01,0 -0.03,0.01zm0.17 -0.06c0.01,0 0.03,-0.01 0.04,-0.02 -0.01,0.01 -0.03,0.02 -0.04,0.02zm0.17 -0.06c0.01,0 0.03,-0.01 0.05,-0.01 -0.02,0 -0.04,0.01 -0.05,0.01zm0.17 -0.06c0.02,0 0.03,-0.01 0.04,-0.01 -0.01,0 -0.02,0.01 -0.04,0.01zm0.19 -0.06c0,-0.01 0.02,-0.01 0.03,-0.01 -0.01,0 -0.02,0.01 -0.03,0.01zm0.17 -0.06c0.01,-0.01 0.03,-0.01 0.04,-0.01 -0.02,0 -0.03,0 -0.04,0.01zm0.19 -0.06c0,0 0.01,0 0.02,0 -0.01,0 -0.01,0 -0.02,0zm0.18 -0.06c0,-0.01 0.01,-0.01 0.02,-0.01 -0.01,0 -0.02,0 -0.02,0.01zm0.18 -0.06c0.03,-0.01 0.06,-0.02 0.09,-0.03 -0.04,0.01 -0.06,0.02 -0.09,0.03zm0.17 -0.06c0.05,-0.01 0.07,-0.02 0.12,-0.04 -0.04,0.02 -0.07,0.03 -0.12,0.04zm0.17 -0.06c0.04,-0.01 0.08,-0.03 0.13,-0.05 -0.05,0.02 -0.09,0.04 -0.13,0.05zm0.17 -0.06c0.05,-0.02 0.08,-0.03 0.13,-0.04 -0.05,0.01 -0.08,0.03 -0.13,0.04zm0.17 -0.06c0.05,-0.02 0.08,-0.04 0.14,-0.05 -0.05,0.01 -0.09,0.03 -0.14,0.05zm0.17 -0.06c0.05,-0.01 0.09,-0.03 0.14,-0.05 -0.05,0.02 -0.09,0.04 -0.14,0.05zm0.17 -0.05c0.05,-0.02 0.1,-0.04 0.15,-0.06 -0.06,0.02 -0.1,0.04 -0.15,0.06zm0.17 -0.06c0.05,-0.02 0.1,-0.04 0.15,-0.06 -0.05,0.02 -0.1,0.04 -0.15,0.06zm0.17 -0.06c21.25,-7.34 37.87,-22.81 43.93,-43.33 0.01,0.02 0.01,0.03 0.02,0.05 -3.83,12.87 -11.81,23.74 -22.47,31.88 -6.33,4.82 -13.58,8.67 -21.48,11.4zm-71.35 -5.31c-0.02,-0.01 -0.04,-0.02 -0.06,-0.03 0.02,0.01 0.03,0.02 0.06,0.03zm-0.09 -0.05c-17.9,-8.96 -31.56,-23.08 -38.71,-39.27 0.01,-0.02 0.01,-0.04 0.02,-0.05 7.12,16.2 20.78,30.34 38.69,39.31z"/>
   <path class="fil16" d="M3960.42 504.63c-0.01,-0.02 -0.01,-0.04 -0.02,-0.06 0.9,-10.49 -1.03,-20.91 -5.29,-30.58 0,-0.01 -0.01,-0.02 -0.01,-0.03 -0.01,-0.01 -0.01,-0.01 -0.02,-0.02 -0.68,-1.55 -1.42,-3.08 -2.21,-4.59l0 0.01c-4.5,-8.46 -10.8,-16.23 -18.56,-22.84 17.82,15.19 27.95,36.47 26.1,58.11zm-160.87 -3.88c-1.5,-8.02 -1.41,-16.3 0.49,-24.52 3.27,-14.14 11.41,-26.07 22.66,-34.9 -11.25,8.83 -19.39,20.77 -22.65,34.9 -1.9,8.23 -1.98,16.5 -0.5,24.52zm134.74 -54.24c-0.01,-0.01 -0.03,-0.03 -0.04,-0.04 0.01,0.01 0.03,0.02 0.04,0.04z"/>
   <path class="fil9" d="M3960.4 504.58l0 0c0.89,-10.49 -1.04,-20.91 -5.29,-30.58 4.26,9.68 6.19,20.09 5.29,30.58zm-159.84 0.65c-0.39,-1.49 -0.73,-2.98 -1.01,-4.48 -1.49,-8.02 -1.4,-16.3 0.5,-24.52 3.26,-14.13 11.4,-26.07 22.65,-34.9 12.32,-9.66 28.38,-15.59 45.81,-16.57 8.63,-0.49 17.6,0.24 26.63,2.32 15.16,3.5 28.5,10.36 39.12,19.39 0.01,0.01 0.03,0.03 0.04,0.04 0.01,0 0.02,0.01 0.03,0.02 7.76,6.61 14.06,14.39 18.56,22.84 0.18,5.05 -0.26,10.15 -1.4,15.23 -11.32,-17.47 -30.66,-31.33 -54.49,-36.84 -9.03,-2.08 -17.99,-2.81 -26.62,-2.32 -33.36,1.88 -61.66,21.86 -68.49,51.49 -0.03,0.16 -0.06,0.31 -0.1,0.47 -1.16,-1.78 -2.23,-3.6 -3.21,-5.45 0.17,4.49 0.85,8.93 1.99,13.29 0,0 0,0 0,0.01zm154.55 -31.26c-0.01,-0.01 -0.01,-0.02 -0.02,-0.02 0.01,0.01 0.01,0.01 0.02,0.02z"/>
   <path class="fil17" d="M3955.11 473.99c0,-0.01 -0.01,-0.02 -0.01,-0.03 0,0.01 0.01,0.02 0.01,0.03zm-0.03 -0.05c-0.68,-1.54 -1.42,-3.08 -2.21,-4.58l0 -0.01c0.79,1.51 1.53,3.04 2.21,4.59z"/>
   <path class="fil18" d="M3960.4 504.58c-1.84,-6.98 -4.87,-13.72 -8.92,-19.98 1.14,-5.09 1.58,-10.18 1.4,-15.23 0.79,1.51 1.53,3.04 2.21,4.58 0.01,0 0.01,0.01 0.02,0.02 0,0.01 0.01,0.02 0.01,0.03 4.25,9.68 6.18,20.09 5.29,30.58zm-159.84 0.64c-1.14,-4.35 -1.82,-8.8 -1.99,-13.29 0.98,1.85 2.06,3.67 3.21,5.45 -0.57,2.61 -0.98,5.22 -1.22,7.83z"/>
   <path class="fil3" d="M3868.95 433.53c-10.84,0.61 -21.25,3.36 -30.55,8.16 -15.63,8.08 -26.19,21.05 -29.77,36.51 -3.57,15.47 0.25,31.76 10.76,45.86 10.83,14.54 27.38,24.99 46.59,29.43 19.2,4.43 38.65,2.29 54.76,-6.04 15.63,-8.08 26.2,-21.04 29.77,-36.5l0 0c3.57,-15.48 -0.25,-31.76 -10.76,-45.86 -10.83,-14.55 -27.38,-25 -46.58,-29.43 -8.12,-1.87 -16.28,-2.58 -24.21,-2.13zm22.23 139.68c-9.59,0.54 -19.42,-0.3 -29.16,-2.55 -23.27,-5.37 -43.44,-18.18 -56.76,-36.06 -13.65,-18.33 -18.56,-39.75 -13.8,-60.36 4.75,-20.58 18.55,-37.71 38.85,-48.2 19.81,-10.25 43.55,-12.93 66.82,-7.56 23.27,5.37 43.43,18.18 56.76,36.06 13.64,18.33 18.55,39.76 13.79,60.36l0.01 0c-4.76,20.59 -18.55,37.72 -38.85,48.2 -11.52,5.96 -24.36,9.36 -37.66,10.11z"/>
   <path class="fil19" d="M4343.52 390.33c-3.71,14.6 -10.15,28.36 -18.66,40.79 -42.69,62.35 -131.2,70.35 -187.11,19.51 -161.95,-147.29 -461.6,-233 -659.73,-214.46 -97.14,6 -129.24,-161.52 -25.55,-214.83 178.73,-54.43 743.29,97.14 875.55,288.28 16.3,23.57 22.55,52.95 15.5,80.71z"/>
   <path class="fil20" d="M4230.22 473.7c-31.3,1.76 -62.21,-9.16 -85.7,-30.52 -77.21,-70.22 -190.88,-131.15 -320.06,-171.58 -113.64,-35.56 -231.38,-52.37 -326.91,-46.99 -6.89,0.39 -13.65,0.9 -20.3,1.51 -0.09,0 -0.17,0.01 -0.26,0.01 -41.32,2.33 -65.37,-30.71 -74.11,-62.5 -5.61,-20.42 -6.18,-44.23 0.13,-66.77 14.42,31.75 41.8,54.27 78.12,52.23 0.56,-0.04 1.13,-0.06 1.71,-0.11 9.63,-1.05 19.55,-1.86 29.64,-2.43 197.22,-11.1 477.11,68.99 633.32,206.72 26.31,23.2 59.48,33.62 91.61,31.81 34.06,-1.92 66.99,-17.56 89.45,-46.25 3.19,4.65 5.97,9.53 8.34,14.58 1.85,11.49 1.4,23.18 -1.43,34.42l0 0c-3.34,13.14 -9.14,25.79 -17.21,37.59 -18.43,26.91 -46.61,43.84 -79.37,47.67 -2.33,0.27 -4.65,0.47 -6.97,0.6z"/>
   <path class="fil21" d="M4326.87 338.85c-0.12,-0.17 -0.25,-0.36 -0.36,-0.53 -118.73,-171.58 -585.83,-311.28 -809.47,-298.69 -25.51,1.43 -47.8,4.84 -66.09,10.41 -21.33,10.97 -36.91,26.76 -47.37,44.89 7.65,-25.6 24.31,-49.32 52.7,-64.19 17.12,-5.1 38.21,-8.3 62.54,-9.67 94.96,-5.34 238.98,17.09 385.92,61.96 201.87,61.67 357.01,148.51 415,232.34 4.22,6.11 7.67,12.57 10.3,19.25 -1.04,1.44 -2.1,2.85 -3.18,4.23z"/>
   <path class="fil22" d="M4335.2 353.43c-2.37,-5.05 -5.15,-9.92 -8.34,-14.58 1.07,-1.39 2.14,-2.79 3.18,-4.23 2.4,6.13 4.13,12.43 5.16,18.81z"/>
   <path class="fil3" d="M3497.55 224.62c95.53,-5.38 213.27,11.43 326.91,46.99 129.19,40.42 242.85,101.36 320.06,171.58 25.23,22.94 59.02,33.85 92.66,29.92 32.76,-3.83 60.94,-20.76 79.37,-47.67 8.07,-11.8 13.86,-24.45 17.21,-37.59l9.75 2.49 -9.75 -2.49c6.15,-24.27 1.05,-50.7 -14.03,-72.48 -58,-83.82 -213.14,-170.67 -415,-232.34 -184.57,-56.36 -364.54,-77.33 -448.46,-52.3 -53.99,28.29 -65.56,88.63 -53.39,132.91 8.74,31.79 32.79,64.83 74.11,62.5 0.08,0 0.17,-0.01 0.26,-0.01 6.65,-0.62 13.41,-1.13 20.3,-1.51zm733.8 269.2c-36.7,2.07 -72.88,-10.73 -100.38,-35.73 -168.04,-152.83 -469.27,-228.99 -652.02,-211.89 -0.18,0.03 -0.39,0.04 -0.57,0.05 -0.08,0.01 -0.16,0.01 -0.24,0.02 -43.96,2.47 -81.09,-27.81 -94.68,-77.27 -14.33,-52.1 -0.28,-123.34 64.41,-156.59 0.53,-0.27 1.08,-0.5 1.66,-0.68 88.42,-26.92 269.41,-6.48 461.08,52.05 94.94,28.99 183.03,64.86 254.73,103.67 81.2,43.96 138.73,89.88 170.95,136.46 18.39,26.59 24.58,59 16.99,88.91 -3.92,15.44 -10.7,30.25 -20.12,44.01 -21.45,31.34 -55.58,51.85 -93.65,56.3 -2.73,0.31 -5.44,0.55 -8.17,0.71z"/>
   <path class="fil3" d="M4327.65 328.81c-6.33,-8.89 -13.84,-16.77 -22.52,-22.92 -8.66,-6.16 -18.44,-10.53 -28.76,-12.78 -20.66,-4.6 -43.2,-0.51 -61.84,10.3 -9.32,5.38 -17.83,12.3 -24.61,20.61 -6.8,8.29 -11.78,17.81 -15.33,27.71 -3.6,9.92 -5.66,20.39 -6.29,31.28 -0.71,10.91 0.23,22.13 1.59,34.02l0.02 0.11c0.21,1.88 -1.14,3.59 -3.03,3.81 -1.33,0.15 -2.56,-0.48 -3.25,-1.51 -6.96,-10.45 -11.4,-22.74 -13.15,-35.66 -1.72,-12.92 -0.41,-26.47 3.81,-39.07 4.24,-12.62 11.43,-24.07 20.07,-33.93 8.66,-9.86 18.83,-18.34 30.17,-24.83 11.33,-6.49 23.77,-11.14 36.75,-13.31 12.95,-2.21 26.4,-2.05 39.37,0.8 12.98,2.82 25.38,8.36 36.14,16.03 10.8,7.65 19.91,17.29 27.38,27.83 3.23,4.54 2.15,10.82 -2.38,14.05 -4.54,3.21 -10.83,2.14 -14.05,-2.4l-0.08 -0.13z"/>
   <path class="fil5" d="M3647.51 1129.67c-0.62,0.04 -1.26,0.04 -1.89,0 -6.49,-0.34 -11.55,-4.19 -11.31,-8.58 0.21,-3.96 4.65,-7.01 10.26,-7.34 0.62,-0.03 1.25,-0.03 1.89,0 6.48,0.35 11.54,4.19 11.31,8.58 -0.21,3.97 -4.65,7.02 -10.26,7.34z"/>
   <path class="fil5" d="M3662.91 841.66c-1.21,0.06 -2.47,0.04 -3.75,-0.09 -9.01,-0.91 -15.8,-6.6 -15.19,-12.72 0.53,-5.23 6.34,-9.08 13.67,-9.49 1.22,-0.06 2.47,-0.04 3.76,0.09 9,0.91 15.8,6.6 15.18,12.71 -0.53,5.24 -6.34,9.09 -13.67,9.5z"/>
   <path class="fil5" d="M3701.8 858.03c-0.56,0.03 -1.13,0.02 -1.72,-0.05 -4.1,-0.41 -7.2,-3.01 -6.92,-5.79 0.25,-2.39 2.9,-4.14 6.23,-4.32 0.56,-0.04 1.13,-0.03 1.72,0.04 4.1,0.41 7.2,3 6.92,5.79 -0.25,2.39 -2.9,4.14 -6.23,4.33z"/>
   <path class="fil5" d="M3980.04 413.32c-0.39,0.02 -0.8,0.02 -1.2,-0.01 -4.12,-0.21 -7.34,-2.66 -7.2,-5.45 0.14,-2.52 2.96,-4.46 6.53,-4.66 0.39,-0.02 0.8,-0.02 1.2,0 0.49,0.03 0.95,0.08 1.4,0.17 1.62,0.85 3.22,1.72 4.82,2.59 0.66,0.8 1.02,1.73 0.96,2.7 -0.13,2.52 -2.95,4.47 -6.52,4.67z"/>
   <path class="fil7" d="M3985.59 405.94c-1.6,-0.87 -3.2,-1.74 -4.82,-2.59 2.07,0.38 3.81,1.34 4.82,2.59z"/>
   <path class="fil5" d="M3592.19 1118.68c-0.97,0.06 -1.98,0.06 -2.99,0.01 -10.23,-0.54 -18.22,-6.61 -17.86,-13.56 0.33,-6.25 7.34,-11.08 16.2,-11.58 0.97,-0.06 1.97,-0.06 2.99,-0.01 10.23,0.55 18.22,6.62 17.86,13.56 -0.33,6.25 -7.34,11.08 -16.2,11.58z"/>
   <path class="fil5" d="M4012.13 450.19c-0.97,0.06 -1.97,0.06 -2.98,0 -10.24,-0.54 -18.23,-6.61 -17.87,-13.55 0.34,-6.25 7.34,-11.08 16.2,-11.59 0.98,-0.06 1.97,-0.06 2.99,0 10.24,0.54 18.22,6.62 17.86,13.56 -0.33,6.24 -7.34,11.07 -16.2,11.58z"/>
   <path class="fil23" d="M3594.14 973.24c11.36,-17.49 19.35,-19.45 25.18,-15.66 5.83,3.78 7.3,11.88 -4.07,29.38 -11.36,17.49 -25.29,28.61 -31.12,24.82 -5.83,-3.78 -1.35,-21.04 10.01,-38.53z"/>
   <path class="fil23" d="M3826.19 742.39c10.22,-15.74 17.41,-17.5 22.65,-14.09 5.24,3.41 6.56,10.69 -3.66,26.42 -10.21,15.73 -22.74,25.72 -27.99,22.32 -5.23,-3.41 -1.21,-18.92 9.01,-34.65z"/>
   <path class="fil23" d="M3543.21 365.76c-18.52,-9.6 -21.25,-17.36 -18.05,-23.54 3.2,-6.17 11.12,-8.42 29.64,1.18 18.52,9.59 30.94,22.38 27.74,28.55 -3.2,6.18 -20.8,3.41 -39.32,-6.19z"/>
   <path class="fil23" d="M3717.05 485.5c16.34,-12.95 24.55,-12.27 28.87,-6.82 4.32,5.44 3.12,13.6 -13.22,26.55 -16.34,12.96 -33.09,19.05 -37.41,13.61 -4.32,-5.44 5.43,-20.37 21.77,-33.34z"/>
   <path class="fil5" d="M4138.68 749.38c-0.35,0.02 -0.71,0.03 -1.07,0.03l-2.97 0.05c-0.97,-0.04 -1.92,-0.24 -2.88,-0.32 -3.77,-0.61 -7.4,-1.73 -10.64,-3.87 -3.25,-2.08 -6.22,-4.86 -8.83,-8.14 -2.59,-3.33 -4.7,-7.21 -6.48,-11.27 -1.8,-4.09 -2.97,-8.51 -3.88,-12.95l-0.58 -3.36 -0.36 -3.39c-0.04,-0.41 -0.07,-0.84 -0.11,-1.26 7.39,2.86 13.77,4.06 19.17,3.76 29.26,-1.65 29.45,-47.13 3.03,-105.52 -8.55,-18.89 -13.12,-36.19 -15.23,-51.41 -2.7,-19.35 9.64,-37.11 27.77,-41.9 -1.1,1.82 -2.06,3.73 -2.87,5.67 -2.29,5.53 -3.72,11.36 -4.22,17.09 -0.53,5.72 -0.62,11.45 -0.13,16.99 0.46,5.55 1.13,11.05 2.22,16.4 3.96,21.39 11.56,41.86 19.78,61.21 4.04,9.72 8.24,19.23 12.07,28.71 1.86,4.67 3.59,9.26 5.07,13.92 1.51,4.64 2.79,9.31 3.71,13.97 1.95,9.31 2.51,18.64 1.21,27.43 -0.61,4.41 -1.86,8.61 -3.35,12.71 -0.93,1.98 -1.67,4.04 -2.83,5.91 -1.06,1.97 -2.07,3.76 -3.33,5.38 -4.9,6.63 -11.92,11.56 -19.53,13.4 -1.56,0.39 -3.12,0.67 -4.73,0.76z"/>
   <path class="fil3" d="M4138.71 757.82c-29.77,1.67 -45.77,-27.22 -47.77,-53.61 -0.09,-1.14 -0.16,-2.28 -0.19,-3.42 1.94,0.63 3.98,1.45 6.15,2.42 1.35,0.61 2.68,1.16 3.98,1.67 0.04,0.42 0.07,0.84 0.11,1.26l0.36 3.39 0.58 3.36c0.91,4.44 2.08,8.87 3.88,12.95 1.78,4.07 3.89,7.94 6.48,11.27 2.61,3.29 5.58,6.06 8.83,8.14 3.24,2.14 6.87,3.26 10.64,3.87 0.96,0.08 1.91,0.28 2.88,0.32l2.97 -0.05c0.36,0 0.72,-0.01 1.07,-0.03 1.61,-0.09 3.17,-0.38 4.73,-0.76 7.61,-1.85 14.63,-6.78 19.53,-13.4 1.27,-1.62 2.28,-3.41 3.33,-5.38 1.16,-1.87 1.9,-3.93 2.83,-5.91 1.49,-4.09 2.75,-8.3 3.35,-12.71 1.29,-8.8 0.73,-18.12 -1.21,-27.43 -0.92,-4.66 -2.2,-9.34 -3.71,-13.97 -1.48,-4.65 -3.2,-9.25 -5.07,-13.92 -3.84,-9.48 -8.03,-18.99 -12.07,-28.71 -8.22,-19.35 -15.82,-39.82 -19.78,-61.21 -1.09,-5.34 -1.76,-10.84 -2.22,-16.4 -0.5,-5.55 -0.4,-11.27 0.13,-16.99 0.5,-5.73 1.94,-11.56 4.22,-17.09 0.82,-1.95 1.77,-3.86 2.87,-5.67 1.36,-0.37 2.75,-0.65 4.18,-0.86 -1.18,3.46 -1.83,6.59 -2.17,9.03 -3.03,8.42 -2.72,18.63 -1.02,29.09l-0.58 22.11 4.98 -2.37c1.65,6.24 3.36,12.23 4.7,17.59 5.82,23.31 18,44.44 27.11,66.65 11.07,27.07 17.57,58.24 1.21,84.76 -7.59,12.28 -20.25,20.93 -34.65,21.96 -0.23,0.01 -0.45,0.03 -0.67,0.05z"/>
   <path class="fil5" d="M3773.54 1195.35c-0.98,0.06 -1.98,0.04 -2.98,-0.08 -3.69,-0.26 -7.41,-1.48 -10.55,-3.64 -1.63,-1 -2.98,-2.37 -4.37,-3.73 -1.79,-2.03 -3.64,-4.11 -5.55,-6.17 -3.25,-3.52 -6.74,-6.97 -10.6,-10.18 4.03,0.75 7.68,1 10.97,0.82 28.74,-1.62 29.31,-36.36 6.99,-57.34 -26.29,-24.72 -35.23,-39.07 -49.96,-82.08 -14.73,-43.01 23.29,-58.64 23.29,-58.64 0,0 -7.5,-34.21 23.94,-39.08 -2.01,2.22 -3.63,4.88 -4.64,7.77 -0.45,1.12 -0.71,2.28 -0.92,3.44 -0.27,1.18 -0.37,2.33 -0.38,3.47l-0.04 1.74c-0.01,0.27 0.02,0.62 0.03,0.83l0.05 0.51 0.15 2.07c0.41,5.4 0.76,10.24 0.36,14.33 -0.4,4.16 -1.46,7.03 -3.69,10.55 -2.26,3.46 -5.57,7.06 -9.27,11.12 -3.68,4.09 -7.83,8.73 -11.12,14.85 -3.27,6.18 -5.08,13.37 -5.02,20.17 -0.04,6.84 1.3,13.37 3.51,19.32 2.19,5.97 5.08,11.5 8.58,16.58 3.54,5.15 7.52,9.6 11.52,13.71 8.09,8.17 16.45,15.04 23.62,22.1 3.62,3.53 6.83,7.06 9.74,10.85 2.92,3.79 5.55,7.83 7.82,12.05 4.57,8.46 7.72,17.66 9.51,27.06 0.89,4.75 1.37,9.38 1.32,13.99 -0.03,4.61 -0.54,9.11 -1.63,13.28 -1.06,4.2 -2.83,7.96 -5.07,11.22 -0.63,0.74 -1.15,1.61 -1.85,2.29l-0.98 1.08 -0.98 0.87c-1.27,1.22 -2.75,2.13 -4.3,2.95 -2.3,1.07 -4.86,1.79 -7.51,1.94z"/>
   <path class="fil3" d="M3774.87 1203.1c-9.61,0.54 -19.49,-3.53 -25.99,-11.67 -7.07,-8.84 -14.24,-17.17 -22.82,-22.8 1.56,-0.02 3.64,0.37 6.29,1.17 2.51,0.75 4.88,1.33 7.14,1.75 3.86,3.21 7.34,6.67 10.6,10.18 1.9,2.06 3.76,4.14 5.55,6.17 1.39,1.36 2.74,2.73 4.37,3.73 3.14,2.16 6.86,3.38 10.55,3.64 1,0.12 2,0.14 2.98,0.08 2.65,-0.15 5.21,-0.86 7.51,-1.94 1.55,-0.82 3.03,-1.73 4.3,-2.95l0.98 -0.87 0.98 -1.08c0.7,-0.68 1.21,-1.54 1.85,-2.29 2.24,-3.26 4.01,-7.01 5.07,-11.22 1.09,-4.17 1.61,-8.67 1.63,-13.28 0.05,-4.61 -0.43,-9.25 -1.32,-13.99 -1.79,-9.4 -4.94,-18.6 -9.51,-27.06 -2.28,-4.22 -4.9,-8.26 -7.82,-12.05 -2.91,-3.79 -6.12,-7.33 -9.74,-10.85 -7.17,-7.06 -15.53,-13.93 -23.62,-22.1 -4,-4.1 -7.98,-8.56 -11.52,-13.71 -3.5,-5.08 -6.38,-10.61 -8.58,-16.58 -2.2,-5.95 -3.54,-12.48 -3.51,-19.32 -0.06,-6.8 1.75,-13.99 5.02,-20.17 3.29,-6.11 7.44,-10.76 11.12,-14.85 3.7,-4.06 7.01,-7.66 9.27,-11.12 2.23,-3.52 3.29,-6.39 3.69,-10.55 0.4,-4.09 0.06,-8.93 -0.36,-14.33l-0.15 -2.07 -0.05 -0.51c-0.01,-0.21 -0.04,-0.56 -0.03,-0.83l0.04 -1.74c0.01,-1.14 0.11,-2.3 0.38,-3.47 0.21,-1.17 0.47,-2.32 0.92,-3.44 1.01,-2.89 2.63,-5.55 4.64,-7.77 1.48,-0.23 3.04,-0.39 4.69,-0.49 4.35,-0.24 9.33,0 15.03,0.86 0.06,0.01 0.09,0.02 0.14,0.04 -0.88,-0.13 -1.78,-0.16 -2.66,-0.11 -6.95,0.39 -13.39,5.95 -13,14.05 0,0.08 -0.01,0.18 0.02,0.26 0.61,8.91 1.81,18.12 -1.17,26.56 -4.69,13.32 -18.64,21.45 -24.41,34.33 -7.15,15.94 0.1,34.93 11.27,48.36 11.14,13.42 25.91,23.44 37.36,36.58 13,14.92 21.41,33.72 23.86,53.34 2.06,16.32 -0.57,34.41 -12.4,45.99 -5.22,5.09 -11.83,7.73 -18.57,8.11zm-0.22 -267.45c-0.03,0.01 -0.05,0 -0.06,0 0.02,0 0.04,0 0.06,0z"/>
   <path class="fil5" d="M3823.97 953.3c-0.76,0.05 -1.6,0.02 -2.48,-0.06 -3.49,-0.31 -7.66,-1.74 -11.69,-3.78 -4.06,-2.01 -8.06,-4.69 -11.86,-7.61 -1.89,-1.5 -3.76,-3.04 -5.54,-4.68 -0.05,-0.05 -0.09,-0.08 -0.14,-0.13 1.56,0 3.08,-0.05 4.54,-0.13 20.13,-1.14 31.53,-9.27 38.14,-18.78 0.06,3.83 0.26,7.59 0.5,11.3 -0.18,4.66 -0.71,9.19 -1.75,13.14 -1.09,4.04 -2.84,7.32 -4.68,8.8 -0.93,0.78 -1.85,1.29 -3.06,1.62 -0.58,0.17 -1.25,0.28 -1.98,0.32z"/>
   <path class="fil3" d="M3824.52 961.48c-13.15,0.75 -29.84,-9.67 -42.14,-21.94 -2.24,-2.22 -4.9,-3.45 -7.61,-3.87 6.42,0.96 12.23,1.39 17.5,1.37 0.05,0.05 0.09,0.08 0.14,0.13 1.77,1.64 3.64,3.19 5.54,4.68 3.8,2.92 7.8,5.6 11.86,7.61 4.03,2.04 8.2,3.47 11.69,3.78 0.88,0.08 1.72,0.11 2.48,0.06 0.73,-0.04 1.4,-0.15 1.98,-0.32 1.2,-0.33 2.13,-0.84 3.06,-1.62 1.85,-1.49 3.59,-4.76 4.68,-8.8 1.05,-3.95 1.57,-8.47 1.75,-13.14 -0.24,-3.71 -0.43,-7.47 -0.5,-11.3 4.87,-7.01 7.12,-14.77 8.36,-21.02 2.65,-13.37 11.81,-22.38 15.95,-25.87 -14.83,12.77 -14.98,36.22 -13.63,56.18 -0.72,24.17 -9.55,33.44 -21.11,34.08zm-49.75 -25.82c-0.05,0 -0.08,-0.01 -0.12,-0.02 0.04,0.01 0.08,0.02 0.12,0.02z"/>
   <path class="fil24" d="M3859.53 871.01c0.79,-0.66 1.37,-1.12 1.65,-1.3 -0.57,0.42 -1.13,0.84 -1.65,1.3z"/>
   <path class="fil3" d="M3860.34 871.98l-1.63 -1.92c0.2,-0.18 0.42,-0.36 0.62,-0.52 0.54,-0.43 0.94,-0.73 1.17,-0.87l1.42 2.07c-0.37,0.27 -0.73,0.54 -1.08,0.83 -0.16,0.13 -0.33,0.27 -0.5,0.42z"/>
   <path class="fil5" d="M3893.31 699.44c-0.23,-30.17 8.69,-44.24 20.77,-66.05 10.51,-18.98 26.48,-16.16 43.37,-18.59l-64.14 84.64z"/>
   <path class="fil5" d="M3875.55 854.63c14.64,-18.43 34.09,-53.26 24.57,-100.95 -4.6,-23.07 -6.68,-40.37 -6.8,-54.24l0 0 64.14 -84.64 0 0c11.46,-1.65 23.38,-5.71 34.36,-20.56 11.93,-16.16 24.23,-21.2 34.29,-21.76 3.51,-0.2 6.75,0.15 9.6,0.76 -1.44,0.61 -2.86,1.3 -4.25,2.09 -3.04,1.76 -5.92,3.95 -8.46,6.62 -1.26,1.38 -2.45,2.81 -3.49,4.4 -0.59,0.81 -0.95,1.5 -1.38,2.22 -0.43,0.73 -0.83,1.45 -1.18,2.19 -3.02,5.91 -4.53,11.96 -5.6,17.56 -1.06,5.62 -1.65,10.87 -2.45,15.73 -0.39,2.46 -0.82,4.56 -1.38,6.72 -0.55,2.14 -1.23,4.2 -2.04,6.1 -1.58,3.81 -3.68,7.04 -6.04,8.99 -2.33,2.01 -4.8,2.88 -8.24,3.1 -3.5,0.13 -7.9,-0.63 -12.9,-1.77 -4.97,-1.07 -10.64,-2.46 -17.18,-2.77 -1.38,-0.05 -2.79,-0.04 -4.22,0.05 -2.01,0.11 -4.06,0.37 -6.12,0.82 -3.46,0.81 -6.84,2 -9.88,3.65 -6.12,3.3 -11.12,7.9 -14.99,13.03 -3.93,5.13 -6.77,10.86 -8.71,16.92 -1.89,6.09 -2.73,12.03 -3.03,17.93 -0.53,11.79 1.09,22.71 2.57,33.13 1.64,10.93 3.99,21.13 6.01,31.28 2.04,10.1 3.86,20.07 4.64,29.7 0.34,4.83 0.39,9.37 -0.07,13.85 -0.46,4.51 -1.39,8.99 -2.74,13.31 -2.67,8.64 -7.23,16.6 -13.26,22.5 -3.01,2.96 -6.39,5.38 -10.04,7.14 -3.57,1.82 -7.83,2.98 -12.65,4.06 -4.02,0.91 -8.41,1.68 -13.06,2.84z"/>
   <path class="fil3" d="M3861.36 869.57c0.47,-0.38 6.69,-5.52 14.18,-14.94 4.65,-1.16 9.04,-1.93 13.06,-2.84 4.82,-1.07 9.08,-2.24 12.65,-4.06 3.65,-1.76 7.03,-4.19 10.04,-7.14 6.02,-5.9 10.59,-13.86 13.26,-22.5 1.35,-4.32 2.28,-8.8 2.74,-13.31 0.46,-4.47 0.41,-9.02 0.07,-13.85 -0.78,-9.63 -2.6,-19.6 -4.64,-29.7 -2.02,-10.15 -4.37,-20.35 -6.01,-31.28 -1.48,-10.41 -3.1,-21.34 -2.57,-33.13 0.3,-5.9 1.14,-11.84 3.03,-17.93 1.95,-6.06 4.78,-11.79 8.71,-16.92 3.87,-5.13 8.87,-9.73 14.99,-13.03 3.04,-1.65 6.42,-2.85 9.88,-3.65 2.07,-0.45 4.11,-0.71 6.12,-0.82 1.43,-0.08 2.85,-0.09 4.22,-0.05 6.54,0.31 12.21,1.7 17.18,2.77 5,1.14 9.4,1.9 12.9,1.77 3.43,-0.22 5.9,-1.09 8.24,-3.1 2.36,-1.95 4.46,-5.18 6.04,-8.99 0.81,-1.9 1.49,-3.96 2.04,-6.1 0.56,-2.16 0.98,-4.26 1.38,-6.72 0.8,-4.86 1.4,-10.11 2.45,-15.73 1.07,-5.6 2.58,-11.65 5.6,-17.56 0.36,-0.74 0.75,-1.47 1.18,-2.19 0.43,-0.73 0.79,-1.41 1.38,-2.22 1.04,-1.59 2.23,-3.02 3.49,-4.4 2.54,-2.67 5.43,-4.86 8.46,-6.62 1.39,-0.79 2.81,-1.49 4.25,-2.09 7.56,1.62 12.39,5.09 12.39,5.09 -8.27,1.09 -16.19,5.39 -20.48,12.25 -6.54,10.49 -6.88,23.49 -9.09,35.61 -2.18,11.99 -7.58,24.99 -18.93,29.38 -2.45,0.95 -4.95,1.41 -7.47,1.56 -5.6,0.31 -11.37,-0.98 -17.19,-2.27 -5.81,-1.29 -11.67,-2.58 -17.45,-2.26 -0.67,0.04 -1.34,0.1 -2.02,0.18 -14.54,1.85 -25.5,15.21 -29.2,29.39 -3.71,14.17 -1.65,29.16 0.42,43.67 3.16,22.28 12.61,53.42 10.97,75.85 -1.65,22.46 -13.38,45.58 -34.11,54.29 -13.72,5.75 -30.16,4.88 -42.18,13.59z"/>
   <path class="fil3" d="M3565.37 669.87c-6.11,42.54 10.94,69.13 33.04,77.14 18.61,6.8 40.77,0.38 55.59,-20.8 7.23,-10.28 12.69,-24.02 15.19,-41.42 -24.83,-27.74 -71.99,-32.81 -103.82,-14.93z"/>
   <path class="fil8" d="M3598.34 735.09c-0.5,4.28 -0.08,8.43 1.13,12.28 18.78,6.33 40.77,-0.64 55.06,-22.17 -4.32,-8.63 -12.78,-14.97 -23.11,-16.2 -16.32,-1.93 -31.14,9.75 -33.08,26.1z"/>
   <path class="fil3" d="M3572.37 674.73c-4.37,38.78 12.45,59.32 28.62,65.19 16.55,6.05 34.93,-1.04 46.83,-18.03 6.47,-9.2 10.94,-20.81 13.34,-34.58 -21.34,-21.03 -60.33,-26.55 -88.79,-12.58zm43.56 82.39c-6.69,0.38 -13.48,-0.59 -20.1,-3.01 -22,-7.98 -45.15,-35.11 -37.93,-85.31 0.34,-2.33 1.73,-4.36 3.77,-5.52 36.1,-20.28 86.86,-12.89 113.15,16.48 1.5,1.67 2.17,3.91 1.85,6.11 -2.55,17.71 -8.09,32.75 -16.49,44.68 -11.38,16.26 -27.52,25.62 -44.26,26.56z"/>
   <path class="fil8" d="M3768.08 753.39c-2.49,8.96 -17.81,12.51 -34.23,7.96 -16.42,-4.56 -27.71,-15.53 -25.22,-24.47 2.49,-8.96 17.81,-12.52 34.23,-7.96 16.42,4.56 27.71,15.52 25.22,24.47z"/>
   <path class="fil8" d="M3507.15 688.27c-2.49,8.96 -17.81,12.51 -34.23,7.96 -16.42,-4.56 -27.71,-15.53 -25.22,-24.48 2.49,-8.95 17.81,-12.51 34.23,-7.95 16.42,4.56 27.71,15.52 25.22,24.47z"/>
   <path class="fil3" d="M3463.78 590.26c0.02,-7.32 1.21,-14.71 3.62,-21.95 2.53,-7.18 6.33,-14.23 11.73,-20.4 5.41,-6.11 12.43,-11.43 20.76,-14.41 8.3,-2.99 17.73,-3.53 26.54,-1.38 8.79,2.3 16.74,7.27 22.6,13.74 5.84,6.53 9.58,14.37 11.48,22.22 1.95,7.88 2.08,15.79 1.15,23.28 -1.09,7.49 -3.26,14.58 -6.26,21.17 -0.88,1.94 -3.16,2.78 -5.1,1.9 -1.41,-0.64 -2.25,-2.05 -2.25,-3.52l0 -0.17c0.04,-6.81 -0.03,-13.34 -0.79,-19.6 -0.83,-6.23 -2.33,-12.12 -4.57,-17.34 -2.28,-5.2 -5.31,-9.72 -9.01,-13.11 -3.74,-3.35 -8.03,-5.59 -12.57,-6.69 -4.59,-0.95 -9.36,-0.7 -14.09,0.62 -4.7,1.45 -9.36,4 -13.66,7.57 -4.32,3.54 -8.33,8.01 -12,13.06 -3.62,5.11 -6.8,10.8 -10.24,16.78l-0.09 0.16c-1.07,1.85 -3.44,2.5 -5.31,1.43 -1.24,-0.73 -1.95,-2.04 -1.95,-3.38z"/>
   <path class="fil3" d="M3681.34 640.13c0.02,-7.32 1.21,-14.71 3.62,-21.95 2.53,-7.19 6.33,-14.24 11.74,-20.4 5.4,-6.11 12.42,-11.43 20.75,-14.41 8.3,-2.99 17.73,-3.53 26.54,-1.38 8.79,2.29 16.73,7.27 22.6,13.73 5.84,6.54 9.58,14.37 11.48,22.23 1.95,7.88 2.08,15.79 1.15,23.28 -1.09,7.49 -3.26,14.58 -6.26,21.17 -0.89,1.93 -3.17,2.78 -5.1,1.9 -1.41,-0.64 -2.26,-2.05 -2.25,-3.51l0 -0.18c0.04,-6.8 -0.03,-13.33 -0.79,-19.6 -0.84,-6.23 -2.33,-12.12 -4.58,-17.33 -2.27,-5.2 -5.3,-9.72 -9,-13.11 -3.74,-3.35 -8.03,-5.59 -12.58,-6.69 -4.58,-0.95 -9.36,-0.7 -14.08,0.62 -4.7,1.45 -9.36,4 -13.67,7.57 -4.32,3.53 -8.32,8 -11.99,13.06 -3.62,5.13 -6.81,10.81 -10.24,16.78l-0.1 0.16c-1.07,1.86 -3.44,2.51 -5.3,1.43 -1.25,-0.72 -1.95,-2.03 -1.95,-3.37z"/>
   <path class="fil25" d="M3684.47 120.65c-2.75,0.15 -5.52,0.06 -8.08,-0.13 -32.12,-2.65 -64.26,-5.3 -96.38,-7.94 -22.66,-1.86 -45.32,-3.73 -67.98,-5.58 -6.28,-0.52 -13.36,-1.46 -17.1,-6.53 -4.23,-5.71 -1.92,-14.29 3.19,-19.24 12.24,-11.89 31.88,-16.03 51.41,-17.13 13.9,-0.78 27.74,-0.02 38.79,0.61 33.68,1.87 67.04,9.94 97.73,23.97 8.98,4.1 19.25,11.77 16.83,21.33 -1.92,7.57 -10.08,10.18 -18.4,10.65z"/>
   <path class="fil25" d="M3813.28 151.24c-8.96,0.5 -21.02,-1.55 -34.18,-4.67 -25.38,-5.99 -45.29,-13.61 -42.32,-26.24 1.97,-8.35 12.72,-13.52 27.1,-14.33 7.35,-0.41 15.66,0.31 24.24,2.33 25.38,5.99 43.53,21.07 40.55,33.69 -1.43,6.08 -7.09,8.75 -15.4,9.22z"/>
   <path class="fil26" d="M3608.12 498.53c-3.3,0.18 -6.6,-0.34 -9.69,-1.69 -12.1,-5.33 -17.33,-20.49 -29.22,-26.27 -4.7,-2.29 -9.81,-2.84 -15.05,-2.54 -5.51,0.31 -11.13,1.55 -16.52,2.64 -3.67,0.75 -7.53,1.38 -11.36,1.6 -7.13,0.4 -14.14,-0.64 -19.55,-5.06 -8.24,-6.71 -9.49,-19.67 -4.59,-29.09 4.9,-9.42 14.7,-15.53 24.94,-18.39 4.46,-1.24 9.14,-1.95 13.96,-2.21 18.77,-1.06 39.41,4.49 56.09,10.37 11.68,4.12 22.74,11.06 29.61,21.37 6.88,10.3 8.9,24.29 3.13,35.26 -4.2,7.97 -12.94,13.51 -21.75,14z"/>
   <path class="fil26" d="M3642.31 570.64c-2.11,0.12 -4.3,-0.17 -6.32,-0.74 -7.3,-2.11 -13.51,-7.7 -16.38,-14.74 -2.86,-7.03 -2.32,-15.38 1.42,-21.99 2.84,-4.99 9.11,-9.78 15.25,-10.12 2.28,-0.13 4.54,0.36 6.59,1.66 7.52,4.78 9.79,20.37 10.68,28.24 0.56,4.99 0.39,10.58 -3.05,14.23 -2.11,2.24 -5.09,3.29 -8.2,3.46z"/>
   <path class="fil7" d="M4145.76 551.67c-1.26,-6.17 -2.08,-12.32 -2.25,-18.36 -0.19,-9.37 1.62,-18.31 6.84,-25.77l0.12 -0.17c1.34,-1.91 1.21,-4.54 -0.43,-6.33 -1.07,-1.15 -2.54,-1.7 -3.99,-1.62 -0.73,0.05 -1.46,0.25 -2.12,0.61 4.14,-6.94 10.84,-14 21.69,-18.89 18.22,8.49 38.14,12.93 58.37,12.88 -26.46,17.84 -52.6,37.11 -78.22,57.65z"/>
   <path class="fil3" d="M4148.55 563.22c-0.11,-0.41 -0.21,-0.82 -0.32,-1.23 -0.93,-3.43 -1.77,-6.88 -2.47,-10.32 25.62,-20.54 51.76,-39.81 78.22,-57.65 2.46,-0.01 4.91,-0.07 7.37,-0.21 2.73,-0.16 5.44,-0.39 8.17,-0.71 0.44,-0.06 0.87,-0.11 1.31,-0.17l-1 2.6 -26.6 23.38 -44.4 34.65 -20.29 9.66z"/>
   <path class="fil3" d="M4141 566.81c-1.7,-6.43 -3.32,-13.13 -4.4,-19.74l0.62 -23.88c0,0 -0.06,-2.01 0.39,-5.21 1.24,-3.46 3.05,-6.62 5.55,-9.37 -1.15,0.06 -2.27,0.18 -3.39,0.35 0.97,-2.82 2.3,-5.87 4.13,-8.92 0.66,-0.36 1.39,-0.56 2.12,-0.61 1.45,-0.08 2.93,0.47 3.99,1.62 1.64,1.78 1.77,4.42 0.43,6.33l-0.12 0.17c-5.22,7.46 -7.03,16.4 -6.84,25.77 0.17,6.04 0.99,12.19 2.25,18.36 0.7,3.44 1.54,6.89 2.47,10.32 0.11,0.41 0.21,0.82 0.32,1.23l-7.55 3.59z"/>
   <path class="fil3" d="M4231.35 493.82c-2.46,0.14 -4.91,0.2 -7.37,0.21 -20.24,0.05 -40.16,-4.39 -58.37,-12.88 3.52,-1.59 7.45,-2.94 11.86,-3.98l31.8 -1.16 35.36 6.97 -3.79 9.96c-0.44,0.06 -0.87,0.11 -1.31,0.17 -2.73,0.31 -5.44,0.55 -8.17,0.71z"/>
   <path class="fil3" d="M4136.03 569.18l0.58 -22.11c1.07,6.61 2.7,13.31 4.4,19.74l-4.98 2.37zm1.6 -51.2c0.34,-2.43 0.98,-5.56 2.17,-9.03 1.12,-0.17 2.24,-0.28 3.39,-0.35 -2.51,2.75 -4.32,5.91 -5.55,9.37z"/>
  </g>
  <polygon class="fil1" points="5584.05,297.37 5091.65,987.44 5506.06,811.78 5607.38,610.2 5604.33,1056.08 4755.04,1223.21 5125.77,479.23 4874.17,540.58 4827.88,742.76 4701.7,337.62 "/>
  <polygon class="fil1" points="6499.36,451.1 5814.66,950.93 6263.3,914.76 6422.97,755.36 6279.61,1177.58 5420.91,1068.67 6007.13,479.35 5749.01,458.32 5641.39,635.63 5649.26,211.37 "/>
  <path class="fil1" d="M6839.7 673.06l-105.36 -214.98 -42.29 285.88 147.65 -70.91zm493.24 267.69l-472.13 211.55 104.99 -183.39 -50.42 -120.13 -180.71 36.14 -35.19 151.56 86.8 52.2 -528.76 102.89 118.27 -112.34 91.35 -692.59 -105.62 -51.68 664.3 -58.35 -147.5 73.81 343.79 571.24 110.84 19.09z"/>
 </g>
</svg>
